<svg width="18" height="17" viewBox="0 0 18 17" fill="none" xmlns="http://www.w3.org/2000/svg">
<path d="M16.0875 7.24101C16.4277 7.24136 16.7032 7.51737 16.703 7.85757L16.698 14.4264C16.6971 15.567 15.7725 16.4908 14.6319 16.4909H3.02367C1.8825 16.4907 0.957702 15.566 0.957633 14.4248V7.85694C0.957633 7.51669 1.23347 7.24085 1.57372 7.24085H1.88542C2.22567 7.24085 2.50151 7.51669 2.50151 7.85694V14.4248C2.50158 14.713 2.73547 14.9468 3.02367 14.947H14.6319C14.9201 14.9469 15.1539 14.713 15.1541 14.4248L15.1584 7.85639C15.1586 7.51604 15.4347 7.24035 15.7751 7.2407L16.0875 7.24101ZM14.999 0C15.5832 0 16.1078 0.357728 16.3208 0.901697L17.4758 3.85228C17.7736 4.61338 17.2121 5.4359 16.3948 5.4359H14.1829C13.8426 5.4359 13.5668 5.16007 13.5668 4.81981V4.50734C13.5668 4.16708 13.8426 3.89125 14.1829 3.89125H15.8321L14.9141 1.54387H2.64257L1.7245 3.89125H3.37414C3.71439 3.89125 3.99022 4.16708 3.99022 4.50734V4.81981C3.99022 5.16007 3.71439 5.4359 3.37414 5.4359H1.16182C0.34454 5.43589 -0.216924 4.61337 0.0808743 3.85228L1.23586 0.901697C1.44883 0.357737 1.97343 7.45694e-06 2.55762 0H14.999Z" fill="url(#paint0_linear_289_1718)"/>
<path d="M8.4192 3.44857C8.53623 3.10585 9.02094 3.10585 9.13797 3.44857L9.7334 5.19221C9.7714 5.30348 9.8588 5.39087 9.97007 5.42887L11.7137 6.0243C12.0564 6.14133 12.0564 6.62604 11.7137 6.74308L9.97007 7.33851C9.8588 7.3765 9.7714 7.4639 9.7334 7.57517L9.13797 9.31881C9.02094 9.66153 8.53623 9.66153 8.4192 9.31881L7.82377 7.57517C7.78577 7.4639 7.69837 7.3765 7.5871 7.33851L5.84346 6.74308C5.50075 6.62604 5.50075 6.14133 5.84347 6.0243L7.5871 5.42887C7.69837 5.39087 7.78577 5.30348 7.82377 5.19221L8.4192 3.44857Z" fill="white"/>
<path d="M4.51044 10.1337C4.21096 10.3702 4.12505 10.7932 4.34484 11.1052C4.81948 11.7789 5.40112 12.3403 6.05906 12.7565C6.89181 13.2832 7.82141 13.5613 8.76647 13.5663C9.71153 13.5713 10.6432 13.3032 11.48 12.7854C12.1408 12.3765 12.7266 11.8216 13.2062 11.1533C13.4289 10.8432 13.3467 10.4193 13.0494 10.1798C12.6801 9.88245 12.1356 9.98935 11.8279 10.35C11.524 10.7061 11.1757 11.008 10.7937 11.2444C10.1706 11.63 9.47686 11.8296 8.77316 11.8259C8.06946 11.8221 7.37728 11.6151 6.75721 11.2229C6.37607 10.9818 6.02932 10.6753 5.72772 10.3148C5.42408 9.95194 4.88177 9.84045 4.51044 10.1337Z" fill="white"/>
<defs>
<linearGradient id="paint0_linear_289_1718" x1="1.99511" y1="-7.36338e-09" x2="16.3599" y2="15.9609" gradientUnits="userSpaceOnUse">
<stop offset="0.117811" stop-color="#FCC811"/>
<stop offset="0.40485" stop-color="#F85D36"/>
<stop offset="0.564146" stop-color="#EF5180"/>
<stop offset="0.857068" stop-color="#4B71FF"/>
<stop offset="1" stop-color="#34DDFF"/>
</linearGradient>
</defs>
</svg>
