<svg width="149" height="44" viewBox="0 0 149 44" fill="none" xmlns="http://www.w3.org/2000/svg">
<rect width="44" height="44" rx="16" fill="#20222E"/>
<path d="M33.6178 20.7183C33.958 20.7186 34.2335 20.9946 34.2333 21.3348L34.2253 31.8123C34.2239 33.5734 32.7964 34.9998 31.0353 34.9999H13.1118C11.3498 34.9997 9.92185 33.5719 9.92174 31.8099V21.3338C9.92174 20.9935 10.1976 20.7177 10.5378 20.7177H11.6894C12.0297 20.7177 12.3055 20.9935 12.3055 21.3338V31.8099C12.3056 32.2549 12.6668 32.616 13.1118 32.6162H31.0353C31.4802 32.616 31.8412 32.2548 31.8415 31.8099L31.8483 21.3328C31.8486 20.9925 32.1247 20.7168 32.465 20.7171L33.6178 20.7183ZM31.602 9.5376C32.5041 9.5376 33.314 10.0899 33.6429 10.9298L35.4262 15.4856C35.886 16.6608 35.0191 17.9308 33.7572 17.9308H30.0067C29.6664 17.9308 29.3906 17.655 29.3906 17.3147V16.1619C29.3906 15.8216 29.6664 15.5458 30.0067 15.5458H32.8884L31.4709 11.9214H12.5233L11.1058 15.5458H13.9881C14.3283 15.5458 14.6042 15.8216 14.6042 16.1619V17.3147C14.6042 17.655 14.3283 17.9308 13.9881 17.9308H10.237C8.97511 17.9308 8.10819 16.6608 8.568 15.4856L10.3513 10.9298C10.6802 10.09 11.4902 9.53761 12.3922 9.5376H31.602Z" fill="url(#paint0_linear_372_925)"/>
<path d="M21.4423 14.8623C21.623 14.3332 22.3714 14.3332 22.5521 14.8623L23.4715 17.5546C23.5302 17.7264 23.6651 17.8613 23.8369 17.92L26.5291 18.8393C27.0583 19.02 27.0583 19.7684 26.5291 19.9491L23.8369 20.8685C23.6651 20.9272 23.5302 21.0621 23.4715 21.2339L22.5521 23.9262C22.3714 24.4553 21.623 24.4553 21.4423 23.9262L20.523 21.2339C20.4643 21.0621 20.3293 20.9272 20.1575 20.8685L17.4653 19.9491C16.9361 19.7684 16.9361 19.02 17.4653 18.8393L20.1575 17.92C20.3293 17.8613 20.4643 17.7264 20.523 17.5546L21.4423 14.8623Z" fill="white"/>
<path d="M15.4071 25.1842C14.9447 25.5494 14.8121 26.2025 15.1514 26.6842C15.8843 27.7245 16.7823 28.5913 17.7982 29.2338C19.084 30.0471 20.5193 30.4764 21.9785 30.4842C23.4377 30.492 24.8763 30.078 26.1683 29.2785C27.1887 28.6471 28.093 27.7904 28.8337 26.7586C29.1774 26.2796 29.0506 25.6252 28.5915 25.2554V25.2554C28.0213 24.7963 27.1806 24.9613 26.7054 25.5182C26.2363 26.068 25.6985 26.5342 25.1086 26.8992C24.1466 27.4945 23.0754 27.8028 21.9889 27.797C20.9023 27.7912 19.8336 27.4715 18.8762 26.8659C18.2877 26.4937 17.7523 26.0204 17.2866 25.4639C16.8178 24.9036 15.9804 24.7314 15.4071 25.1842V25.1842Z" fill="white"/>
<path d="M61.68 30.22C57.56 30.22 54.82 27.26 54.82 22.78C54.82 18.32 57.64 15.3 61.78 15.3C65.04 15.3 67.54 17.24 68.08 20.2H65.98C65.44 18.32 63.82 17.18 61.72 17.18C58.8 17.18 56.88 19.38 56.88 22.76C56.88 26.14 58.8 28.34 61.72 28.34C63.84 28.34 65.52 27.2 66.06 25.42H68.14C67.52 28.3 64.94 30.22 61.68 30.22ZM72.0456 30H70.1656V15.28H72.0456V30ZM79.0331 30.24C76.1531 30.24 74.1731 28.16 74.1731 25.12C74.1731 22.06 76.1131 19.94 78.9531 19.94C81.7331 19.94 83.5531 21.86 83.5531 24.76V25.46L75.9931 25.48C76.1331 27.54 77.2131 28.68 79.0731 28.68C80.5331 28.68 81.4931 28.08 81.8131 26.96H83.5731C83.0931 29.06 81.4531 30.24 79.0331 30.24ZM78.9531 21.52C77.3131 21.52 76.2731 22.5 76.0331 24.22H81.6731C81.6731 22.6 80.6131 21.52 78.9531 21.52ZM88.4153 30.24C86.3153 30.24 85.0753 29.06 85.0753 27.28C85.0753 25.48 86.4153 24.36 88.7153 24.18L91.7953 23.94V23.66C91.7953 22.02 90.8153 21.44 89.4953 21.44C87.9153 21.44 87.0153 22.14 87.0153 23.32H85.3753C85.3753 21.28 87.0553 19.94 89.5753 19.94C91.9953 19.94 93.6353 21.22 93.6353 23.86V30H92.0353L91.8353 28.42C91.3353 29.54 89.9953 30.24 88.4153 30.24ZM88.9553 28.78C90.7353 28.78 91.8153 27.62 91.8153 25.78V25.26L89.3153 25.46C87.6553 25.62 86.9753 26.26 86.9753 27.22C86.9753 28.26 87.7353 28.78 88.9553 28.78ZM98.1189 30H96.2389V20.22H97.9389L98.1389 21.72C98.7589 20.6 99.9989 19.94 101.379 19.94C103.959 19.94 105.139 21.52 105.139 24.02V30H103.259V24.44C103.259 22.46 102.339 21.66 100.899 21.66C99.1389 21.66 98.1189 22.92 98.1189 24.82V30Z" fill="white"/>
<path d="M113.363 30.22C109.923 30.22 107.623 27.7 107.623 23.92C107.623 19.1 110.763 15.56 115.023 15.56C117.923 15.56 120.163 17.46 120.363 20.06H119.443C119.163 17.9 117.383 16.42 115.023 16.42C111.263 16.42 108.543 19.58 108.543 23.92C108.543 27.22 110.423 29.34 113.383 29.34C115.803 29.34 117.503 28.24 118.583 25.94H119.603C118.403 28.78 116.303 30.22 113.363 30.22ZM123.708 30.24C122.028 30.24 120.928 29.24 120.928 27.72C120.928 25.82 122.428 24.58 124.968 24.38L128.228 24.12L128.288 23.82C128.648 22 127.788 20.98 125.908 20.98C124.148 20.98 123.128 21.74 122.868 23.24H121.968C122.268 21.3 123.748 20.16 125.928 20.16C128.268 20.16 129.548 21.5 129.208 23.62L128.208 30H127.468L127.608 28.2C126.788 29.48 125.328 30.24 123.708 30.24ZM123.908 29.44C126.068 29.44 127.668 27.88 128.048 25.4L128.128 24.88L124.908 25.14C122.948 25.3 121.808 26.26 121.808 27.72C121.808 28.76 122.628 29.44 123.908 29.44ZM130.627 27.5H131.527C131.527 28.64 132.507 29.44 133.907 29.44C135.427 29.44 136.467 28.64 136.467 27.46C136.467 26.6 136.087 26.14 135.067 25.78L133.547 25.24C132.207 24.76 131.547 23.96 131.547 22.78C131.547 21.24 132.887 20.16 134.807 20.16C136.767 20.16 137.907 21.2 137.907 22.96H137.007C136.947 21.58 136.247 20.96 134.767 20.96C133.367 20.96 132.427 21.68 132.427 22.78C132.427 23.62 132.867 24.14 133.867 24.5L135.367 25.04C136.767 25.54 137.347 26.24 137.347 27.46C137.347 29.08 135.907 30.24 133.907 30.24C131.987 30.24 130.627 29.1 130.627 27.5ZM143.309 30.24C140.989 30.24 139.329 28.46 139.329 25.98C139.329 22.7 141.529 20.16 144.369 20.16C146.909 20.16 148.449 22.1 148.049 24.58L147.949 25.2H140.249C140.229 25.46 140.209 25.72 140.209 25.98C140.209 28.04 141.469 29.44 143.309 29.44C144.849 29.44 146.209 28.62 146.709 27.26H147.609C146.969 29.14 145.289 30.24 143.309 30.24ZM144.369 20.96C142.469 20.96 140.909 22.42 140.389 24.48H147.169C147.509 22.36 146.309 20.96 144.369 20.96Z" fill="#CECFD9"/>
<defs>
<linearGradient id="paint0_linear_372_925" x1="11.5236" y1="9.5376" x2="33.7033" y2="34.1817" gradientUnits="userSpaceOnUse">
<stop offset="0.117811" stop-color="#FCC811"/>
<stop offset="0.40485" stop-color="#F85D36"/>
<stop offset="0.564146" stop-color="#EF5180"/>
<stop offset="0.857068" stop-color="#4B71FF"/>
<stop offset="1" stop-color="#34DDFF"/>
</linearGradient>
</defs>
</svg>
