<svg width="40" height="40" viewBox="0 0 40 40" fill="none" xmlns="http://www.w3.org/2000/svg">
<path d="M39.402 24.8381C36.7309 35.5525 25.8789 42.0731 15.1633 39.4012C4.4521 36.7301 -2.06846 25.8775 0.603853 15.1639C3.27382 4.44838 14.1258 -2.07268 24.8381 0.598468C35.553 3.26961 42.0732 14.1234 39.4017 24.8383L39.4019 24.8381H39.402Z" fill="#F7931A"/>
<path fillRule="evenodd" clipRule="evenodd" d="M28.8217 17.1504C29.2197 14.4889 27.1934 13.0582 24.4225 12.1038L25.3214 8.49845L23.1268 7.95159L22.2517 11.462C21.6748 11.3181 21.0822 11.1825 20.4933 11.0481L21.3747 7.51451L19.1814 6.96765L18.2821 10.5718C17.8046 10.4631 17.3357 10.3557 16.8807 10.2425L16.8832 10.2311L13.8567 9.47534L13.2729 11.8194C13.2729 11.8194 14.9012 12.1926 14.8669 12.2156C15.7556 12.4374 15.9163 13.0257 15.8896 13.492L14.8657 17.5993C14.9269 17.6149 15.0063 17.6374 15.0939 17.6726L15.0302 17.6567L15.0301 17.6567C14.976 17.6431 14.9197 17.629 14.8619 17.6152L13.4267 23.3689C13.3181 23.6389 13.0424 24.0441 12.4211 23.8903C12.4431 23.9221 10.8259 23.4922 10.8259 23.4922L9.73633 26.0044L12.5923 26.7164C12.9051 26.7948 13.2142 26.8754 13.5201 26.9551L13.5203 26.9552C13.734 27.0109 13.9462 27.0662 14.1571 27.1201L13.2489 30.7668L15.441 31.3136L16.3404 27.7057C16.9392 27.8682 17.5204 28.0182 18.0894 28.1596L17.193 31.7505L19.3878 32.2974L20.2959 28.6576C24.0383 29.3658 26.8522 29.0803 28.0367 25.6953C28.9911 22.97 27.9891 21.398 26.0203 20.3729C27.4543 20.0422 28.5344 19.099 28.8224 17.1507L28.8218 17.1502L28.8217 17.1504ZM23.8073 24.1818C23.1851 26.6822 19.2713 25.6485 17.4806 25.1755C17.3195 25.1329 17.1756 25.0949 17.0528 25.0645L18.258 20.2332C18.4076 20.2706 18.5905 20.3116 18.7977 20.3581C20.6499 20.7738 24.4449 21.6255 23.8074 24.1818H23.8073ZM19.1692 18.1159C20.6621 18.5143 23.9189 19.3835 24.4861 17.1109H24.4863C25.0654 14.7867 21.9004 14.086 20.3546 13.7437C20.1807 13.7052 20.0273 13.6713 19.902 13.64L18.8094 18.0217C18.9125 18.0474 19.0336 18.0797 19.1692 18.1159Z" fill="white"/>
</svg>
