<svg width="40" height="40" viewBox="0 0 40 40" fill="none" xmlns="http://www.w3.org/2000/svg">
<circle cx="20" cy="20" r="20" fill="#EDF0F4"/>
<path d="M13.9776 19.8981C13.9207 20.8865 14.6816 21.7327 15.67 21.7896C15.7055 21.7896 15.7411 21.7896 15.7766 21.7896C16.7721 21.7896 17.5757 20.9861 17.5686 19.9906C17.5686 18.9951 16.765 18.1915 15.7695 18.1987C14.8167 18.1987 14.0274 18.9453 13.9776 19.8981Z" fill="#0033AD"/>
<path d="M7.27912 19.436C6.95913 19.4146 6.68181 19.6635 6.66759 19.9835C6.65337 20.3035 6.89513 20.5808 7.21512 20.595C7.53511 20.6164 7.80532 20.3675 7.82665 20.0475C7.84798 19.7275 7.5991 19.4573 7.27912 19.436Z" fill="#0033AD"/>
<path d="M13.8639 9.47367C14.1484 9.33145 14.2621 8.97591 14.1199 8.69148C13.9777 8.40705 13.6222 8.29328 13.3377 8.43549C13.0533 8.57771 12.9395 8.92614 13.0817 9.21057C13.2239 9.50211 13.5724 9.623 13.8639 9.47367C13.8639 9.47367 13.8568 9.47367 13.8639 9.47367Z" fill="#0033AD"/>
<path d="M15.684 12.6523C16.1249 12.4319 16.3027 11.8914 16.0822 11.4506C15.8618 11.0097 15.3214 10.8319 14.8805 11.0524C14.4396 11.2728 14.2619 11.8132 14.4823 12.2541C14.7027 12.695 15.2432 12.8727 15.684 12.6523Z" fill="#0033AD"/>
<path d="M9.55465 14.8352C9.89597 15.0557 10.3511 14.9632 10.5786 14.6219C10.799 14.2806 10.7066 13.8255 10.3653 13.598C10.024 13.3775 9.56887 13.47 9.34133 13.8113C9.11378 14.1526 9.21333 14.6148 9.55465 14.8352Z" fill="#0033AD"/>
<path d="M10.6426 19.116C10.1448 19.0876 9.72527 19.4644 9.69682 19.9622C9.66838 20.46 10.0453 20.8795 10.543 20.9079C11.0408 20.9364 11.4603 20.5595 11.4887 20.0617C11.5172 19.5711 11.1403 19.1445 10.6426 19.116Z" fill="#0033AD"/>
<path d="M9.65462 25.1388C9.29197 25.3237 9.14264 25.7646 9.32752 26.1343C9.51241 26.497 9.95327 26.6463 10.323 26.4614C10.6857 26.2765 10.835 25.8357 10.6501 25.4659C10.4653 25.1032 10.0173 24.9539 9.65462 25.1388Z" fill="#0033AD"/>
<path d="M13.1383 17.2601C13.6289 17.58 14.2831 17.4449 14.596 16.9543C14.916 16.4636 14.7809 15.8095 14.2902 15.4966C13.7996 15.1766 13.1454 15.3117 12.8325 15.8023C12.5125 16.2859 12.6476 16.9401 13.1383 17.2601Z" fill="#0033AD"/>
<path d="M24.1956 12.5811C24.608 12.8514 25.1698 12.7376 25.44 12.3252C25.7102 11.9127 25.5964 11.351 25.184 11.0808C24.7716 10.8106 24.2098 10.9243 23.9396 11.3368C23.6623 11.7563 23.7761 12.3109 24.1956 12.5811Z" fill="#0033AD"/>
<path d="M26.0307 9.41691C26.3009 9.59468 26.6565 9.51646 26.8342 9.24625C27.012 8.97604 26.9338 8.6205 26.6636 8.44273C26.3934 8.26496 26.0378 8.34318 25.8601 8.60628C25.6894 8.87649 25.7676 9.23914 26.0307 9.41691Z" fill="#0033AD"/>
<path d="M24.331 18.1844C23.3426 18.1275 22.4893 18.8884 22.4395 19.8768C22.3826 20.8652 23.1435 21.7185 24.1319 21.7682C24.1674 21.7682 24.203 21.7682 24.2314 21.7682C25.2198 21.7682 26.0234 20.9647 26.0234 19.9692C26.0305 19.0235 25.2838 18.2342 24.331 18.1844Z" fill="#0033AD"/>
<path d="M16.2747 17.132C16.5804 17.7365 17.1991 18.1204 17.8817 18.1204C18.8701 18.1204 19.6736 17.3169 19.6736 16.3214C19.6736 16.0441 19.6096 15.7668 19.4816 15.5108C19.0337 14.6219 17.9528 14.2664 17.0711 14.7144C16.1822 15.1695 15.8267 16.2503 16.2747 17.132Z" fill="#0033AD"/>
<path d="M30.3466 14.8353C30.7092 14.6504 30.8514 14.2024 30.6665 13.8398C30.4817 13.4771 30.0337 13.3349 29.671 13.5198C29.3084 13.7047 29.1662 14.1456 29.3439 14.5082C29.5359 14.8709 29.9768 15.0202 30.3466 14.8353Z" fill="#0033AD"/>
<path d="M25.796 15.4042C25.277 15.6673 25.0636 16.3001 25.3267 16.8192C25.5898 17.3383 26.2227 17.5516 26.7418 17.2885C27.2609 17.0254 27.4742 16.3926 27.2111 15.8735C26.948 15.3544 26.3151 15.1482 25.796 15.4042Z" fill="#0033AD"/>
<path d="M19.9293 9.1466C20.3346 9.16793 20.6831 8.85506 20.7115 8.44974C20.74 8.04443 20.42 7.696 20.0147 7.66756C19.6093 7.64622 19.2609 7.95199 19.2325 8.3573C19.2111 8.76973 19.524 9.11816 19.9293 9.1466Z" fill="#0033AD"/>
<path d="M19.9226 13.79C20.5057 13.8256 21.0034 13.3776 21.0319 12.7945C21.0674 12.2114 20.6195 11.7136 20.0364 11.6852C19.4533 11.6497 18.9555 12.0976 18.9271 12.6807C18.8986 13.2638 19.3395 13.7616 19.9226 13.79Z" fill="#0033AD"/>
<path d="M14.2056 24.57C14.7247 24.3069 14.9381 23.674 14.675 23.1549C14.4119 22.6358 13.779 22.4225 13.2599 22.6856C12.7408 22.9487 12.5275 23.5816 12.7906 24.1007C13.0537 24.6197 13.6866 24.8331 14.2056 24.57Z" fill="#0033AD"/>
<path d="M20.6053 15.3331C20.0649 16.1651 20.2924 17.2743 21.1244 17.8148C21.9563 18.3552 23.0656 18.1276 23.606 17.2957C24.1465 16.4637 23.9189 15.3544 23.0869 14.814C22.7954 14.622 22.4541 14.5225 22.1057 14.5225C21.5012 14.5225 20.9395 14.8282 20.6053 15.3331Z" fill="#0033AD"/>
<path d="M23.7268 22.8421C23.2788 21.9532 22.1979 21.5977 21.3162 22.0457C20.4274 22.4937 20.0718 23.5745 20.5198 24.4562C20.9678 25.3451 22.0486 25.7006 22.9304 25.2526C23.8121 24.8118 24.1747 23.7452 23.7339 22.8563C23.7339 22.8492 23.7339 22.8492 23.7268 22.8421Z" fill="#0033AD"/>
<path d="M26.8625 22.7141C26.3719 22.3941 25.7177 22.5292 25.4048 23.0199C25.0848 23.5105 25.2199 24.1647 25.7105 24.4776C26.2012 24.7976 26.8554 24.6625 27.1683 24.1718C27.4882 23.6883 27.3531 23.0341 26.8625 22.7141Z" fill="#0033AD"/>
<path d="M30.3042 20.019C30.3326 19.5213 29.9557 19.1017 29.458 19.0733C28.9602 19.0448 28.5407 19.4217 28.5123 19.9195C28.4838 20.4172 28.8607 20.8368 29.3584 20.8652C29.8491 20.8936 30.2757 20.5097 30.3042 20.019Z" fill="#0033AD"/>
<path d="M32.786 19.3791C32.466 19.3578 32.1886 19.6066 32.1744 19.9266C32.1602 20.2466 32.402 20.5239 32.722 20.5381C33.0419 20.5595 33.3122 20.3106 33.3335 19.9906C33.3477 19.6706 33.1059 19.4004 32.786 19.3791Z" fill="#0033AD"/>
<path d="M30.4461 25.1388C30.1048 24.9184 29.6497 25.0109 29.4222 25.3522C29.2017 25.6935 29.2942 26.1486 29.6355 26.3761C29.9768 26.5966 30.4319 26.5041 30.6595 26.1628C30.887 25.8215 30.7874 25.3593 30.4461 25.1388Z" fill="#0033AD"/>
<path d="M13.9638 30.5572C13.6936 30.3795 13.338 30.4577 13.1603 30.7208C12.9825 30.991 13.0607 31.3465 13.3238 31.5243C13.594 31.7021 13.9496 31.6238 14.1273 31.3607C14.3122 31.0976 14.234 30.735 13.9638 30.5572Z" fill="#0033AD"/>
<path d="M26.1375 30.5003C25.8531 30.6425 25.7393 30.9981 25.8815 31.2825C26.0238 31.5669 26.3793 31.6807 26.6637 31.5385C26.9482 31.3963 27.0619 31.0479 26.9197 30.7634C26.7775 30.4719 26.4291 30.351 26.1375 30.5003C26.1446 30.5003 26.1375 30.5003 26.1375 30.5003Z" fill="#0033AD"/>
<path d="M19.3956 24.6411C19.936 23.8091 19.7085 22.6998 18.8765 22.1523C18.0445 21.6119 16.9352 21.8394 16.3877 22.6714C15.8402 23.5033 16.0748 24.6126 16.9068 25.1601C17.1983 25.3521 17.5397 25.4517 17.8881 25.4517C18.4996 25.4588 19.0614 25.153 19.3956 24.6411Z" fill="#0033AD"/>
<path d="M15.805 27.3929C15.3926 27.1227 14.8308 27.2365 14.5606 27.6489C14.2904 28.0613 14.4042 28.6231 14.8166 28.8933C15.229 29.1635 15.7908 29.0497 16.061 28.6373C16.3383 28.2249 16.2246 27.6631 15.805 27.3929Z" fill="#0033AD"/>
<path d="M19.9929 30.8274C19.5876 30.8061 19.2392 31.119 19.2107 31.5243C19.1823 31.9296 19.5023 32.278 19.9076 32.3065C20.3129 32.3278 20.6613 32.0221 20.6898 31.6167C20.7111 31.2043 20.3982 30.8559 19.9929 30.8274Z" fill="#0033AD"/>
<path d="M19.9999 26.1841C19.4168 26.1486 18.9191 26.5965 18.8907 27.1796C18.8551 27.7627 19.3031 28.2605 19.8862 28.2889C20.4692 28.3173 20.967 27.8765 20.9954 27.2934C21.031 26.7174 20.583 26.2126 19.9999 26.1841Z" fill="#0033AD"/>
<path d="M24.3165 27.3219C23.8756 27.5494 23.6978 28.0898 23.9254 28.5307C24.1529 28.9716 24.6933 29.1493 25.1342 28.9218C25.5751 28.7013 25.7529 28.1609 25.5324 27.7201C25.3049 27.2792 24.7645 27.0943 24.3165 27.3219Z" fill="#0033AD"/>
</svg>
