<svg width="40" height="40" viewBox="0 0 40 40" fill="none" xmlns="http://www.w3.org/2000/svg">
<circle cx="20" cy="20" r="20" fill="#8DC351"/>
<path fillRule="evenodd" clipRule="evenodd" d="M26.5182 13.2636C25.5172 10.7761 23.1397 10.6517 20.2617 11.1492L19.2607 7.66663L17.1334 8.28852L18.1345 11.6467C17.9317 11.6971 17.7084 11.7679 17.4729 11.8426L17.4729 11.8426L17.4729 11.8426C17.127 11.9522 16.7548 12.0702 16.3826 12.1442L15.3816 8.66165L13.2544 9.28354L14.2554 12.7661C14.0052 12.8283 13.7862 12.8905 13.5672 12.9527L13.5672 12.9527C13.3482 13.0149 13.1292 13.0771 12.879 13.1393L10.001 14.1343L10.6266 16.3731C10.6266 16.3731 12.2533 15.8756 12.1282 15.8756C13.0041 15.6268 13.3795 16 13.6298 16.4975L14.7559 20.4776H15.0062L14.7559 20.6019L16.3826 26.199C16.3826 26.4477 16.3826 26.9452 15.757 27.194L14.2554 27.6915L14.5057 30.3034L17.2586 29.5572L18.7601 29.184L19.7612 32.6666L21.8884 32.0447L20.8874 28.5621C21.513 28.4378 22.0135 28.3134 22.6392 28.0646L23.6402 31.5472L25.7675 30.9253L24.7664 27.4427C28.2701 26.199 30.5224 24.5821 29.8968 21.0995C29.3963 18.3631 27.7696 17.4925 25.5172 17.6169C26.7685 16.3731 27.269 15.1293 26.5182 13.2636ZM25.7675 21.7213C26.4293 24.0238 22.91 25.0698 21.0382 25.6262C20.7866 25.7009 20.5648 25.7669 20.3869 25.8258L19.0104 21.0994C19.2078 21.0504 19.4548 20.9777 19.7371 20.8947C21.6027 20.3459 25.0067 19.3446 25.7675 21.7213ZM18.7337 18.8849C20.2297 18.4623 23.4548 17.5513 22.7643 15.3781C22.1984 13.1277 19.0723 14.1346 17.5549 14.6233C17.3949 14.6748 17.2528 14.7206 17.1335 14.7562L18.3848 18.985C18.4853 18.955 18.6029 18.9218 18.7337 18.8849Z" fill="white"/>
</svg>
