<svg width="40" height="40" viewBox="0 0 40 40" fill="none" xmlns="http://www.w3.org/2000/svg">
<circle cx="20" cy="20" r="20" fill="#988430"/>
<circle cx="20" cy="20" r="19.3594" fill="#7A6A2A"/>
<circle cx="20.0003" cy="19.9999" r="18.9515" fill="#BA9F33"/>
<path fillRule="evenodd" clipRule="evenodd" d="M8.74451 17.8642C8.63123 17.7608 8.51155 17.6571 8.40147 17.5536C8.29139 17.4502 8.17832 17.3465 8.06504 17.243L7.7284 16.923C7.67336 16.868 7.61512 16.8195 7.56008 16.7643C7.50504 16.7159 7.4404 16.6608 7.38536 16.6122C6.93864 16.1883 6.48936 15.7644 6.04883 15.3403C6.50515 15.7578 6.95187 16.1723 7.40819 16.596L7.56669 16.7547C7.62173 16.8095 7.67998 16.8582 7.73501 16.9132L8.07144 17.2238C8.18472 17.3273 8.2948 17.431 8.40808 17.5438C8.52136 17.6567 8.63144 17.7606 8.74472 17.8638L8.74451 17.8642ZM2.81576 17.8003C2.81576 17.8003 4.44029 17.9684 5.23325 18.0816C5.96776 18.1853 8.26557 18.538 8.26557 18.538L2.81576 17.8003ZM2.81564 17.8002C3.27196 17.8391 3.72828 17.8875 4.1846 17.9361C4.41756 17.9587 4.64092 17.9846 4.86428 18.0072L5.20711 18.0462C5.32039 18.0622 5.43047 18.0784 5.54375 18.0946L6.90311 18.3114L7.58258 18.4247C7.80594 18.4635 8.0293 18.5057 8.26226 18.5446C8.0389 18.5219 7.80594 18.4895 7.58258 18.4571L6.90311 18.36L5.54375 18.1595C5.43047 18.1433 5.32039 18.1205 5.20711 18.1045L4.86407 18.065C4.64071 18.0424 4.40775 18.0099 4.18439 17.9839C3.72807 17.9291 3.27175 17.8706 2.81543 17.7996L2.81564 17.8002ZM8.10374 18.9612C8.10374 18.9612 6.36913 19.4015 5.78332 19.5699C5.20732 19.7284 3.46289 20.2591 3.46289 20.2591L8.10353 18.9614L8.10374 18.9612Z" fill="#CFB66C"/>
<path fillRule="evenodd" clipRule="evenodd" d="M8.10419 18.9611C7.71912 19.0743 7.33619 19.1844 6.94558 19.2881L5.78696 19.5987C5.4019 19.712 5.01896 19.8221 4.63496 19.9354L4.05896 20.0939C3.86803 20.1489 3.6739 20.1973 3.47656 20.2526C3.66728 20.1886 3.86163 20.1231 4.05256 20.068L4.62856 19.8837C5.01363 19.7638 5.39656 19.6506 5.78056 19.5309C6.17203 19.4338 6.55731 19.3301 6.94878 19.2363C7.32083 19.1424 7.71251 19.0487 8.10419 18.9613V18.9611ZM3.70638 21.3269C3.8971 21.2557 6.09785 20.23 6.60921 19.9904C6.86521 19.8705 7.60931 19.6064 7.60931 19.6064L3.70638 21.3269Z" fill="#CFB66C"/>
<path fillRule="evenodd" clipRule="evenodd" d="M3.70627 21.3269C3.87437 21.2629 4.03309 21.1846 4.1948 21.1102L4.67373 20.8868L5.63501 20.4241C5.95501 20.272 6.26605 20.1041 6.59608 19.9612C6.7644 19.8901 6.93272 19.8319 7.10083 19.7769L7.35683 19.696C7.44408 19.6734 7.52515 19.6474 7.61283 19.6248C7.29283 19.7769 6.95597 19.9064 6.63555 20.055C6.31555 20.2138 5.98829 20.3433 5.65805 20.4856L4.68077 20.9158C4.35267 21.0488 4.03267 21.191 3.70605 21.3269H3.70627ZM3.9196 22.2229C3.9196 22.2229 5.91298 21.0547 6.59906 20.6793C6.95832 20.4787 8.12013 19.9025 8.12013 19.9025L3.9196 22.2229Z" fill="#CFB66C"/>
<path fillRule="evenodd" clipRule="evenodd" d="M3.91992 22.2234C4.25635 22.0163 4.59939 21.8059 4.94243 21.5924L5.45443 21.2816C5.62915 21.1781 5.79747 21.081 5.9756 20.9776C6.15032 20.8739 6.31864 20.7704 6.49656 20.6734C6.58126 20.6211 6.67001 20.5756 6.76195 20.5375L7.03374 20.4016C7.39299 20.2268 7.75224 20.0487 8.13091 19.8966C7.78787 20.1136 7.43501 20.2981 7.08238 20.4888C6.90766 20.5859 6.72952 20.6734 6.5548 20.7704C6.38008 20.8675 6.21176 20.9712 6.03363 21.065C5.85891 21.1685 5.69059 21.2656 5.51267 21.3594L4.9851 21.6474L3.92035 22.2234H3.91992ZM8.10411 20.1586C8.10411 20.1586 6.86465 21.11 6.46337 21.4142C6.06209 21.7185 4.88086 22.5729 4.88086 22.5729L8.10411 20.1586Z" fill="#CFB66C"/>
<path fillRule="evenodd" clipRule="evenodd" d="M15.2172 27.8317L14.583 26.631L14.9519 25.1294L17.5829 24.1133L16.4631 21.8157L17.0165 19.4952L18.0554 17.4174L21.2659 16.9126L23.6249 14.6635L28.7189 15.0485L29.7188 20.4951L27.7932 27.3527L26.6963 30.903L22.2496 31.0713L20.1849 29.6409L17.7674 28.631L15.2172 27.8317Z" fill="#E2CC85"/>
<path fillRule="evenodd" clipRule="evenodd" d="M23.016 27.7928C23.016 27.7928 22.401 28.0744 21.352 28.0096C21.0484 27.6019 18.9224 27.4109 18.9224 27.4109C18.9224 27.4109 18.657 27.3301 18.1876 27.5242C17.7153 27.7162 17.2686 27.6925 16.8511 27.796C16.4336 27.8995 16.0191 27.3559 15.6991 27.2426C15.3791 27.1229 14.9548 26.8349 14.9548 26.8349L14.0588 26.7475L12.2595 25.9869L9.40109 23.1392L8.62434 24.3552L8.38477 25.86L9.24898 27.6433L11.5758 29.7629L16.113 30.9149L18.8023 30.1226L22.1712 28.6986L23.016 27.7926V27.7928Z" fill="#F1D789"/>
<path fillRule="evenodd" clipRule="evenodd" d="M6.89596 17.7282L7.47196 15.984L8.15825 14.8576L10.3684 14.6731L9.70492 16.6085L7.85724 19.8966L8.62417 22.8318L7.26503 23.5113L6.84732 22.8706L6.51089 21.4014L6.48828 19.7509L6.89596 17.7282Z" fill="#F4ECB4"/>
<path fillRule="evenodd" clipRule="evenodd" d="M9.37489 27.6732L8.95099 27.0809C8.95099 27.0809 8.83771 26.7993 8.90257 26.5534C8.96657 26.3042 8.95739 26.288 8.92518 26.1941C8.89297 26.1003 8.62097 25.7766 8.63718 25.4982C8.65318 25.2166 8.61457 25.1228 8.8215 24.8996C9.03825 24.6829 8.97361 24.3074 8.97361 24.3074L9.25521 24.4821L9.31921 24.385C9.31921 24.385 9.42267 24.4659 9.42267 24.5922C9.44529 24.4175 9.35142 23.6083 9.56497 23.424C9.77851 23.2397 10.1572 24.288 10.1572 24.288L9.92422 22.7669L9.32539 21.2072L8.26065 19.7832L8.19665 18.2135V18.0776C8.19665 18.0776 7.7079 18.8286 7.57201 19.4216C7.47494 19.8293 7.7079 20.3245 7.65947 20.9103C7.62043 21.4929 7.57201 21.4475 7.7143 21.6783C7.85659 21.9091 8.20305 22.3838 8.06715 22.7268C7.94747 23.0214 7.53958 22.8143 7.53958 22.8143C7.53958 22.8143 7.45873 23.0536 7.34865 23.1411C7.30982 22.9988 7.26779 22.9081 7.19014 22.8211C7.18353 22.8761 7.16753 22.9506 7.16753 22.9506C7.16753 22.9506 7.09627 22.7272 7.02502 22.4456C6.92817 22.0704 6.82449 21.5752 6.73062 21.3099C6.69179 21.462 6.59473 21.9247 6.59473 21.9247L6.64977 22.6368L6.91515 23.6141L7.17115 24.2541L7.42033 25.0372L7.63686 25.5633L7.81158 25.9646L7.96369 26.8676L8.69819 27.6441L9.08987 27.8191L9.37446 27.6734L9.37489 27.6732Z" fill="#F3E19D"/>
<path fillRule="evenodd" clipRule="evenodd" d="M7.28143 16.3042C7.28143 16.3042 6.75386 17.2002 6.60197 18.1035C6.45007 19.0067 6.31397 19.9612 6.40997 21.1908C6.50703 22.4305 6.69157 23.1908 6.84047 23.7346C7.09647 24.6377 7.75951 25.8933 7.75951 25.8933L7.78213 25.8447C7.67068 25.6335 7.58173 25.4111 7.51674 25.1812C7.42927 24.8382 7.39685 24.4305 7.31599 24.246C7.24474 24.0617 7.12506 23.9029 7.06682 23.6764C7.01178 23.4596 7.00282 23.1166 6.83386 22.861C6.76261 22.7573 6.67514 22.4856 6.64933 22.2138C6.6169 21.8059 6.66554 21.3496 6.62671 20.9743C6.55546 20.3497 6.50703 19.9258 6.57167 19.5987C6.63631 19.2717 6.97317 18.3433 7.18031 17.6053C7.31621 17.1328 7.23514 16.7347 7.48431 16.3236C7.73349 15.916 7.88581 15.5567 7.94063 15.3075C8.00463 15.081 7.28058 16.3042 7.28058 16.3042H7.28143Z" fill="#F2E8B0"/>
<path fillRule="evenodd" clipRule="evenodd" d="M9.78311 15.9449C9.78311 15.9449 9.51132 16.026 9.38183 16.1683C9.25234 16.3042 9.1973 16.4175 9.02258 16.6472C8.84786 16.877 8.83804 17.0647 8.69554 17.3527C8.55324 17.6343 8.23922 18.0582 8.20039 18.2103C8.16156 18.3624 8.09692 19.0743 8.01607 19.411C7.94482 19.7476 8.09692 20.1619 8.09692 20.1619L8.28124 20.1229C8.28124 20.1229 8.28124 20.3624 8.46578 20.5244C8.6501 20.6829 8.68252 19.987 8.68252 19.987L9.3718 17.6601L10.4105 16.9547L10.5238 16.3851L9.78268 15.9449H9.78311Z" fill="#F5EEC0"/>
<path fillRule="evenodd" clipRule="evenodd" d="M10.2881 17.0001C10.2881 17.0001 9.79934 17.0324 9.55998 17.2073C9.46291 17.2783 9.42408 17.3366 9.32062 17.424C9.12968 17.5825 8.93534 17.7282 8.84168 17.936C8.738 18.143 8.62472 18.457 8.54707 19.0492C8.51464 19.2984 8.51464 19.5281 8.49203 19.7289C8.4596 20.0007 8.41118 20.2174 8.43699 20.3689C8.46942 20.6795 8.78984 20.8414 8.82099 21.1941L9.48446 20.8576L10.1091 18.3947L11.436 17.5627L10.6851 16.7213L10.2872 16.9986L10.2881 17.0001Z" fill="#E6DB9D"/>
<path fillRule="evenodd" clipRule="evenodd" d="M6.7883 33.5849C6.79107 33.5605 6.79385 33.5362 6.79662 33.5113C6.89347 32.6793 6.9099 32.0486 6.98094 31.6538C7.08441 31.094 7.15566 30.8858 7.13945 30.6763C7.11683 30.3398 7.09102 30.0939 7.12345 29.8349C7.17187 29.4918 7.50851 29.0842 7.49891 28.8026C7.4923 28.5792 7.37902 28.4337 7.28195 28.2978C7.18489 28.1619 7.10723 28.0486 7.10723 28.0486C7.10723 28.0486 7.7707 27.5923 7.7643 25.754C7.77785 25.7578 7.79089 25.7633 7.80313 25.7702L8.12995 26.6989L8.35331 26.9707L9.21091 28.5694L10.3145 29.6407L11.9454 30.7377L12.9681 31.8507L13.0716 34.8183L11.7351 36.553L11.5162 36.9493C9.77725 36.0763 8.18264 34.9416 6.78809 33.5846L6.7883 33.5849Z" fill="#E5CB7A"/>
<path fillRule="evenodd" clipRule="evenodd" d="M10.8711 36.4239C10.8711 36.4239 10.8937 36.0551 11.1979 35.8155C11.2466 35.8963 11.2788 35.9742 11.2692 36.0322C11.3242 35.9354 11.7093 35.3139 12.5799 35.152C13.4505 34.9935 13.6609 34.3593 13.6609 34.3593L15.5085 32.6797L17.6218 30.7347L20.1914 29.8317L21.3923 29.5371C21.3923 29.5371 21.4149 29.6245 21.3697 29.8187C21.5928 29.8027 22.0879 29.6894 22.6025 29.5081C22.8097 29.4272 23.004 29.3948 23.1075 29.5017C23.2596 29.644 23.2822 29.9806 23.2918 30.1811C23.541 30.1261 23.829 29.8867 24.0598 29.9093C24.4289 29.9482 24.7557 30.3819 25.1311 30.3819C25.6263 30.3819 25.8494 30.0777 26.1959 29.8381C26.403 29.6958 26.7006 29.5181 26.869 29.398C27.2702 29.1034 31.5162 27.8057 31.5162 27.8057L33.0049 27.9027L33.2444 29.5015L33.1164 33.6807C33.1006 33.6958 33.0849 33.7116 33.0689 33.7267L26.3002 37.2619L16.9178 38.7002C14.8161 38.3568 12.788 37.6592 10.9197 36.637L10.8717 36.4237L10.8711 36.4239Z" fill="#D8C173"/>
<path fillRule="evenodd" clipRule="evenodd" d="M7.35645 34.1165C7.48978 33.8377 7.60967 33.6045 7.63079 33.5211C7.64743 33.6892 7.67794 34.0581 7.73938 34.4502C7.61038 34.3405 7.48274 34.2292 7.35645 34.1163V34.1165Z" fill="#F1D789"/>
<path fillRule="evenodd" clipRule="evenodd" d="M14.2105 38.0495L15.4239 37.712L15.5274 37.7445C15.5274 37.7445 15.5824 37.7769 15.5824 37.8868C15.7345 37.7995 15.864 37.8155 15.9579 37.7575C16.0063 37.8609 16.0547 38.204 16.2685 38.246C16.4917 38.2946 16.7312 38.1489 16.974 37.9646C17.2134 37.7737 17.486 37.5341 17.6923 37.437C17.768 37.5762 17.835 37.7199 17.893 37.8673C18.1648 37.6506 18.6374 36.7704 19.3104 36.7864C19.505 36.3267 19.83 35.934 20.2453 35.657C20.8699 35.2331 21.2614 35.2007 21.7501 35.2395C21.9442 34.9873 22.1834 34.7734 22.4556 34.6085C22.5365 34.6409 22.7598 34.7768 23.0382 34.6473C23.3198 34.518 23.6368 34.0162 24.0543 33.9516C24.2793 33.9206 24.508 33.9687 24.7016 34.0875C24.7016 34.0875 25.9176 32.8802 26.7566 32.479C26.7242 32.3819 26.6595 32.0162 27.6432 31.2071C27.6983 31.2557 27.6594 31.3916 27.6983 31.3991C27.7143 31.3991 27.9543 31.2956 28.2581 31.0624C28.6335 30.781 29.0832 30.4864 29.355 30.4056C29.867 30.2535 30.4102 30.5641 30.4102 30.5641C30.4563 30.5317 30.5078 30.5076 30.5623 30.4928C30.6915 30.4702 30.7854 30.454 30.8567 30.4288C30.8503 30.5972 30.9441 30.8852 30.8567 31.1343C30.958 31.1913 31.0653 31.2369 31.1767 31.2702C31.1218 31.3899 31.0019 31.6941 30.8014 31.8398C30.9695 31.9207 30.9921 32.0145 31.2317 32.0958C31.1346 32.2317 30.9757 32.4649 30.9049 32.6078C30.8336 32.7599 30.5778 33.391 30.4646 33.6303C30.3449 33.8699 30.1832 34.31 30.1053 34.3983C30.0274 34.4866 29.7461 34.861 29.5293 35.0454C29.7213 34.9741 30.5068 34.7348 30.84 34.6441C30.7408 34.7896 30.238 35.5356 29.7546 36.253C25.0723 39.0595 19.4087 39.7152 14.209 38.0527L14.2105 38.0495Z" fill="#E0CD81"/>
<path fillRule="evenodd" clipRule="evenodd" d="M10.3679 16.9126C10.3679 16.9126 10.0865 16.9126 10.0314 16.9515C9.97639 16.9903 10.313 17.0713 10.4165 17.1102C10.52 17.149 10.7433 17.3269 10.8016 17.4694C10.8566 17.6053 12.8242 18.3981 12.8242 18.3981L14.2157 18.3268L14.6955 17.664L13.7829 16.8646L14.4229 14.9779L13.5751 15.1138L11.5363 16.3298L10.5136 16.7215L10.3679 16.9126Z" fill="#DFC57C"/>
<path fillRule="evenodd" clipRule="evenodd" d="M13.4242 17.5373C13.4651 17.6035 13.5383 17.643 13.6162 17.6407C13.9042 17.6407 14.1694 17.712 14.2794 17.8575C14.464 18.0906 14.9753 18.835 14.9753 18.835L16.1986 19.2751L16.2775 17.8346L14.941 16.906L13.4199 17.4658V17.537H13.4233L13.4242 17.5373Z" fill="#E5CC7C"/>
<path fillRule="evenodd" clipRule="evenodd" d="M13.1837 18.0712C13.1837 18.0712 13.4068 18.0874 13.6884 17.9837C13.97 17.8801 14.4328 17.6569 14.6335 17.7444C14.9149 17.8641 14.8567 18.2395 15.1611 18.5764C15.3454 18.7835 15.682 18.7771 15.873 19.0005C16.0639 19.2238 16.7208 19.1202 16.7208 19.1202L16.9699 20.4642L15.97 21.7459L15.643 23.338H14.2909L13.0557 22.848L12.4473 21.376L12.7515 19.8873L13.1837 18.0712Z" fill="#D2C281"/>
<path fillRule="evenodd" clipRule="evenodd" d="M15.7991 18.1359C15.8326 18.1462 15.8675 18.1517 15.9026 18.1521C15.8637 18.1845 15.7827 18.2556 15.8151 18.4401C15.8475 18.6247 15.951 18.8576 15.8637 18.9999C15.9334 19.0761 15.9853 19.1667 16.0158 19.2653C16.0709 19.424 16.0871 19.5695 16.4461 19.5923C16.3943 19.6242 16.3465 19.6623 16.3038 19.7056C16.3038 19.7056 16.553 19.9224 16.6793 20.1229C16.8086 20.1173 17.1516 20.0107 17.1516 20.0107L17.2229 20.0593L17.375 19.9953C17.375 19.9953 17.2327 19.9403 17.3362 19.594C17.4332 19.2898 17.5207 19.306 17.5282 19.2834C17.5356 19.2608 17.5994 18.9404 17.5994 18.8109C17.6478 18.6428 17.6867 18.1314 17.6867 18.1314L17.5832 17.002L17.0008 16.6492L16.5272 16.192L16.0805 17.0334L15.7863 17.3267L15.7637 18.0548L15.7991 18.1359Z" fill="#E2C270"/>
<path fillRule="evenodd" clipRule="evenodd" d="M17.2002 17.191C17.2002 17.191 17.3037 17.4854 17.3427 17.712C17.3565 17.6679 17.3641 17.6222 17.3653 17.5761C17.3653 17.5761 17.4462 18.0228 17.4622 18.2073C17.4946 18.2007 17.5262 18.1911 17.5334 18.2233C17.5407 18.2556 17.6145 18.615 17.5974 18.8156C17.7322 18.5932 17.9187 18.4067 18.141 18.272C18.2705 18.1909 18.4226 18.1037 18.5813 18.097C18.8305 18.0906 19.0116 18.2558 19.3094 18.2558C20.0277 18.2558 20.6784 17.7282 21.1573 17.5665C21.51 17.4466 21.8142 17.3593 22.0277 17.165C22.1314 17.0777 22.3159 16.8836 22.484 16.5954C22.7074 16.2114 22.9404 15.8771 23.1735 15.8351C23.068 15.8545 22.9607 15.862 22.8535 15.8577C22.8535 15.8577 22.9248 15.7864 23.0455 15.6894C23.1663 15.5923 23.3109 15.4726 23.5178 15.4726C23.8869 15.4726 24.0712 15.5274 24.2784 15.5274C24.4855 15.521 24.6052 15.4726 24.6052 15.4726C24.6052 15.4726 24.8222 15.6247 25.3107 15.6247C25.7994 15.6311 26.1263 15.6732 26.3821 15.696C26.6378 15.7188 27.4952 15.6247 27.7412 15.632C27.9016 15.6382 28.059 15.6767 28.2041 15.7453L27.4112 13.4413L24.5628 10.9517L22.867 12.1523L20.2583 14.7607L17.7342 15.696L17.2066 16.2882V17.191H17.2002Z" fill="#CCB360"/>
<path fillRule="evenodd" clipRule="evenodd" d="M22.8647 15.8705C22.8647 15.8705 22.9359 15.7994 23.0554 15.7024C23.1749 15.6053 23.321 15.4854 23.5279 15.4854C23.8968 15.4854 24.0813 15.5404 24.2885 15.5404C24.4956 15.534 24.6153 15.4854 24.6153 15.4854C24.6153 15.4854 24.8325 15.6373 25.3208 15.6373C25.8095 15.6437 26.1363 15.6857 26.3921 15.7083C26.6479 15.731 27.5053 15.6373 27.7513 15.6443C27.9116 15.6504 28.069 15.6889 28.214 15.7576L27.8547 14.7187L27.4375 13.9259L26.2464 12.6216C26.2464 12.6216 24.8171 11.7802 24.8062 11.7738C24.7998 11.7674 24.3111 11.6379 24.3111 11.6379L23.0166 12.4211L21.8419 15.46L21.8193 16.1L22.5797 16.4593C22.7706 16.1393 22.9811 15.8833 23.1785 15.8508C23.0003 15.8703 22.8645 15.8703 22.8645 15.8703L22.8647 15.8705Z" fill="#D5B457"/>
<path fillRule="evenodd" clipRule="evenodd" d="M22.8478 16.0875C22.7345 16.0939 22.6408 16.0713 22.6148 15.9904C22.5178 15.7186 22.4401 15.6798 22.3588 15.6798C22.2775 15.6798 22.1679 15.8545 22.1028 15.8705C22.0378 15.8865 21.9605 15.67 21.9605 15.67L21.8893 15.6376C21.8893 15.6376 21.4718 15.9094 21.1774 16.2298C20.883 16.5502 20.4006 17.094 20.1839 17.1909C19.9671 17.2877 19.2226 17.3203 18.9679 17.3754C18.7132 17.4304 18.4307 17.615 18.3919 17.657C18.3531 17.699 18.5054 17.7442 18.528 17.7863C18.5506 17.8251 18.2786 17.8089 18.256 17.8503C18.24 17.8827 18.32 18.067 18.3597 18.1609C18.4291 18.1264 18.5053 18.1076 18.5828 18.1058C18.832 18.0994 19.0133 18.2646 19.3109 18.2646C20.0294 18.2646 20.6799 17.737 21.1588 17.5751C21.5117 17.4554 21.8159 17.3679 22.0294 17.1738C22.1329 17.0865 22.3174 16.8922 22.4858 16.6042C22.6086 16.4069 22.7285 16.2223 22.8484 16.0864L22.8478 16.0875Z" fill="#D2B257"/>
<path fillRule="evenodd" clipRule="evenodd" d="M12.5439 32.1037C12.5439 32.1037 12.4799 31.8641 11.8868 31.2461C11.7185 31.0714 11.615 30.9261 11.5017 30.8222C11.2201 30.5566 11.055 30.4856 10.8545 30.3335C10.4144 30.0066 9.93546 30.0066 9.5666 29.6054C9.19775 29.2041 8.76788 28.4374 8.46922 27.6538C8.17482 26.8706 8.09375 26.6215 8.09375 26.5989C8.09375 26.5762 8.17482 26.4241 8.27828 26.4467C8.38175 26.4694 8.38175 26.6699 8.40778 26.7185C8.45933 26.7979 8.51779 26.8726 8.5825 26.9417C8.7346 27.1166 8.95135 27.3257 9.06143 27.6376C9.03882 27.3722 8.94815 27.0778 8.94815 27.0778C8.94815 27.0778 9.51775 27.437 10.0031 27.8123C10.4918 28.1878 10.6924 28.3173 10.8351 28.5566C10.9778 28.796 11.314 29.4272 11.4751 29.6118C11.6362 29.7963 13.8431 30.492 13.8431 30.492L14.8929 31.2747L15.4141 32.4171L15.0062 33.0571L14.223 33.2254L12.9511 32.6558L12.5439 32.1035V32.1037Z" fill="#D2B159"/>
<path fillRule="evenodd" clipRule="evenodd" d="M9.71875 28.1684C9.71875 28.1684 9.98414 28.5923 10.6314 28.9935C11.214 29.3464 12.1362 29.6668 12.9584 29.8578C13.4308 29.971 13.9033 30.0583 14.3272 30.0649C15.4696 30.0809 16.2559 29.7543 17.2302 29.6474C17.7578 29.5924 18.405 29.5503 19.0781 29.3914C19.9421 29.1843 20.4535 28.9511 21.1494 28.6234C21.6541 28.3905 22.117 28.2157 22.4923 27.9924C23.0199 27.6818 23.4049 27.3355 23.8517 27.2321C23.7966 27.3842 23.7384 27.6559 23.2983 27.9375C23.5312 27.9309 23.8517 27.9149 23.8517 27.9149C23.8517 27.9149 23.541 28.0993 22.9941 28.5135C22.6574 28.7695 22.2109 29.2028 21.7546 29.4908C21.46 29.6754 21.1396 29.8108 20.9292 29.9213C20.4172 30.2029 20.2107 30.3452 19.8743 30.6893C19.994 30.6829 20.0038 30.6893 20.0038 30.6893C20.0038 30.6893 19.5797 30.7444 19.2757 30.9061C19.2117 30.9061 19.1007 30.8835 18.9066 30.9385C18.7545 30.9869 18.5537 31.0972 18.3468 31.1553C18.0522 31.2427 17.9553 31.2039 17.9553 31.2039L18.0038 31.301C18.0038 31.301 17.6198 31.2943 17.4918 31.3074C17.5144 31.3138 17.508 31.3236 17.508 31.3236C17.4855 31.3273 17.4638 31.335 17.444 31.3462C17.3824 31.3861 17.3146 31.4156 17.2434 31.4334C17.2046 31.4398 17.1722 31.4398 17.1235 31.4497C17.1398 31.4885 17.2661 31.7057 17.3243 31.8337C17.2759 31.8661 16.5476 32.4163 16.5476 32.4163C16.5701 32.4518 16.5886 32.4898 16.6026 32.5295C16.6252 32.6006 16.635 32.7043 16.6576 32.7527C16.7125 32.8498 16.7449 32.866 16.7449 32.866C16.7449 32.866 16.6576 32.8822 16.5053 32.921C16.376 32.9534 16.2173 33.0083 15.9933 33.0407C15.9246 33.0496 15.8554 33.055 15.7862 33.0569C15.8186 33.1282 15.9609 33.3999 15.6987 33.7138C15.4365 34.0276 15.3557 34.0732 15.2748 34.2738C15.2341 34.243 15.1908 34.2159 15.1453 34.1927C15.0581 34.1539 14.9382 34.0958 14.8961 34.018C14.8716 34.1217 14.8392 34.2234 14.7991 34.3222C14.7182 34.5389 14.5985 34.7527 14.5759 34.9144C14.4885 34.8173 14.3268 34.6264 14.1034 34.6652C13.88 34.7041 13.7021 35.0083 13.6633 35.0957C13.6633 35.0407 13.6245 34.9987 13.6149 35.0633C13.6082 35.1346 13.4854 35.8787 12.7993 36.4807C12.7929 36.3286 12.7929 35.9919 12.7767 35.8821C12.7127 35.9461 12.6344 36.0406 12.1682 36.2413C11.7119 36.4419 11.7842 36.6426 11.7842 36.6426C11.7842 36.6426 11.7454 36.3226 11.9914 35.9855C12.2406 35.6491 12.3927 35.4904 12.3927 35.4646C12.3886 35.4383 12.3774 35.4136 12.3602 35.3933C12.3278 35.3609 12.2632 35.3221 12.2632 35.2963C12.302 35.2803 12.6871 35.0957 12.6645 34.7137C12.6418 34.3708 12.4964 34.1927 12.3927 34.0666C12.3767 34.0504 12.545 33.9307 12.5222 33.8919C12.506 33.8693 12.299 33.717 12.273 33.6359C12.2791 33.5875 12.29 33.5399 12.3054 33.4936C12.328 33.4223 12.3442 33.3737 12.3378 33.3253C12.3216 33.2444 12.2342 33.0211 12.2084 32.9985C12.231 33.0049 12.3927 32.9985 12.3927 32.9985C12.3927 32.9985 12.2634 32.7913 12.2406 32.6942C12.2177 32.5972 12.1693 32.3414 12.1435 32.293C12.1985 32.2994 12.3344 32.309 12.3344 32.293C12.341 32.2443 12.2148 32.1635 12.2704 32.101C12.3093 32.1074 12.3837 32.1398 12.4548 32.2305C12.4159 32.1268 12.3513 31.9262 12.2152 31.8454C12.2792 31.8228 12.4968 31.7643 12.6877 31.8776C12.8786 31.9909 12.9437 32.1494 12.9437 32.1494C12.9437 32.1494 13.057 32.2369 13.2319 32.3663C13.4325 32.5249 13.688 32.7503 14.0959 32.9099C14.1834 32.9586 14.4065 32.9586 14.5685 32.9261C14.639 32.9093 14.7066 32.8821 14.769 32.8453C14.7915 32.832 14.8154 32.8211 14.8402 32.8129C14.8055 32.743 14.7654 32.6759 14.7206 32.6121C14.7756 32.6121 14.8402 32.6187 14.8402 32.6187C14.8402 32.6187 14.8791 32.5313 14.7044 32.3627C14.7432 32.3239 14.7918 32.2987 14.7918 32.2332C14.7368 32.2268 14.6397 32.146 14.6171 32.1135C14.6493 32.0909 14.698 32.0165 14.753 31.9939C14.7044 31.955 14.5847 31.7931 14.5296 31.7771C14.5822 31.7576 14.6331 31.7338 14.6817 31.7059C14.6817 31.7059 14.41 31.6346 14.3225 31.5764C14.235 31.5124 14.1057 31.4017 14.0281 31.3692C13.947 31.3368 13.8047 31.3208 13.7465 31.2559C13.8013 31.2722 13.8888 31.2559 13.9536 31.2559C14.0021 31.2559 14.0249 31.2623 14.0409 31.2623C14.0345 31.2397 14.0345 31.1911 14.1608 31.1751C14.2215 31.1659 14.2805 31.1474 14.3355 31.1201C14.3355 31.1201 14.2156 31.1137 14.0795 30.9842C13.9434 30.8547 13.8303 30.7512 13.7527 30.735C13.6718 30.7188 13.5197 30.79 13.4258 30.7834C13.2964 30.7674 13.2413 30.7026 13.2413 30.7026C13.2413 30.7026 12.811 30.7414 11.8563 30.159C11.031 29.654 10.6717 29.2075 10.6717 29.2075C10.5945 29.1795 10.5198 29.1448 10.4486 29.1038C10.138 28.9421 9.70744 28.6055 9.72046 28.1652L9.71875 28.1684Z" fill="#C2A44D"/>
<path fillRule="evenodd" clipRule="evenodd" d="M21.6247 8.74424C21.6996 8.76857 21.7661 8.81344 21.8167 8.87374C21.9688 9.04846 22.0659 9.37848 21.7197 9.73134C21.8556 9.77976 21.9117 9.79534 22.0303 9.77976C21.9106 9.92227 21.6388 10.2265 21.6226 10.4919C21.6064 10.7086 21.7423 10.7735 21.7423 10.7735C21.7423 10.7735 21.5351 11.0128 21.5255 11.4135C21.6234 11.3032 21.7304 11.2014 21.8455 11.1093C22.0851 10.9183 22.4151 10.7016 22.6385 10.5657C22.6355 10.6226 22.6431 10.6797 22.6611 10.7338C22.6611 10.7338 23.0784 10.3908 23.4291 10.5431C23.5876 10.6143 23.5164 10.8375 23.5164 10.8375C23.5164 10.8375 23.7333 10.7566 23.8854 10.9087C24.0375 11.0608 24.2526 11.4532 24.3629 11.6053C24.4113 11.6765 24.5376 11.8124 24.6669 12.0228C24.8435 12.3172 24.991 12.6283 25.1072 12.9514C25.1136 12.7831 25.1556 12.5211 25.6348 12.686C26.1137 12.8543 26.6573 13.2072 27.1136 13.902C27.5699 14.5968 27.683 15.3813 27.9127 15.6799C28.1457 15.9679 28.3853 16.4469 28.4015 16.6476C28.4177 16.8484 28.3302 17.4954 28.8092 19.2462C28.945 18.7026 29.1522 17.4954 29.1522 17.4954L29.2655 16.4306L29.395 13.1361L25.9548 10.2781L23.2655 8.32654L21.5146 8.49486L21.6245 8.74403L21.6247 8.74424Z" fill="#CAA13E"/>
<path fillRule="evenodd" clipRule="evenodd" d="M28.0164 13.6471C28.0164 13.6471 27.9678 13.3271 27.1588 12.7831C26.3496 12.2459 25.7186 12.2459 25.1362 11.7896C24.6895 11.4304 24.2235 10.605 23.9202 10.3332C23.6256 10.0646 23.5771 9.28786 23.5771 9.28786L24.5706 8.45586L26.0482 6.32018L27.2973 4.94482L27.8959 5.77682L28.7279 6.7541L29.1906 8.71528L29.3589 11.5859L28.0149 13.6473L28.0164 13.6471Z" fill="#B59544"/>
<path fillRule="evenodd" clipRule="evenodd" d="M29.0159 17.088C29.0404 16.6527 28.9866 16.2165 28.8572 15.8001C28.6438 15.1367 28.1777 13.9586 27.9612 13.5175C27.8737 13.0287 27.9386 12.9899 28.0324 12.9348C28.1263 12.8798 28.4792 12.6788 28.6724 11.9738C28.8657 11.2687 29.4654 11.2457 29.4654 11.2457L29.8342 10.9739L30.3942 12.3751L30.8828 13.6405L31.0349 14.6082L31.1482 15.4334L30.8828 17.1778L29.5723 18.3622L29.0157 17.088H29.0159Z" fill="#C89D3A"/>
<path fillRule="evenodd" clipRule="evenodd" d="M10.7285 36.531V36.4952C10.7557 36.4781 10.7798 36.4565 10.7996 36.4312C10.8222 36.3987 10.8386 36.3599 10.8546 36.3503C10.887 36.3341 11.0391 36.2863 11.12 36.3017C11.2008 36.317 11.4146 36.4051 11.5279 36.3987C11.7608 36.3923 12.0326 36.2142 12.4631 36.2953C13.1104 36.415 13.2625 36.8551 13.638 37.1042C13.894 37.2792 14.1589 37.2013 14.1977 37.2013H14.285C14.3012 37.2013 14.4209 37.0654 14.4857 37.072C14.6152 37.0784 14.628 37.1853 14.7089 37.1917C14.8998 37.2143 15.2689 37.0946 15.4534 37.1433C15.5645 37.1781 15.6515 37.265 15.6864 37.376C15.7252 37.4957 15.6928 37.6478 15.5989 37.7353C15.3984 37.9196 15.2074 38.0945 15.1686 38.2473C15.218 38.2849 15.2654 38.3251 15.3107 38.3676C13.7095 37.9596 12.1688 37.3428 10.7285 36.5329V36.531Z" fill="#CEB052"/>
<path fillRule="evenodd" clipRule="evenodd" d="M27.9609 30.0649C27.9609 30.0649 28.4657 29.3918 28.6406 29.0583C28.8153 28.7147 28.0872 24.3627 28.0872 24.3627L29.5501 19.5699L29.511 18.01C29.511 18.01 29.5823 16.5698 29.7506 15.9452C29.9513 16.3044 30.576 16.7381 30.7119 16.9679C30.7759 16.5276 30.9933 15.5989 30.961 14.6086C31.0807 14.793 31.3687 16.6475 31.3687 16.6475L31.6567 17.8965L32.0322 19.2235L32.4497 20.6249L32.6989 21.5925L32.8412 21.8255L32.961 22.2332L33.0743 22.6735L33.4012 23.7058L33.5932 24.5536L33.7453 26.0909C33.7783 26.2086 33.8022 26.3287 33.8165 26.4501C33.8229 26.6185 33.7939 26.7155 33.7939 26.7448C33.7939 26.774 33.8489 27.1136 33.8263 27.3694C33.7939 27.6254 33.7939 27.8257 33.5932 28.0094C33.3924 28.1931 33.2663 29.2909 33.2663 29.2909L32.9071 29.0515C32.9071 29.0515 32.9783 28.7245 32.81 28.4269C32.6417 28.1293 32.3149 28.0676 32.1303 28.1163C31.946 28.1551 31.5772 28.2131 31.4573 28.3168C31.344 28.4203 31.0658 28.7407 30.81 28.8864C30.49 29.0784 29.9686 29.0935 29.6904 29.1582C29.4088 29.2222 29.0982 29.4142 28.7712 29.6371C28.5148 29.8031 28.244 29.9459 27.9622 30.0638L27.9609 30.0649Z" fill="#CCA847"/>
<path fillRule="evenodd" clipRule="evenodd" d="M27.9609 37.136C27.9609 37.136 27.9823 37.1499 28.0234 37.1725C30.3227 36.0953 32.3828 34.5683 34.0821 32.6818C34.0636 32.0269 34.0394 31.3555 34.013 31.1068C33.9582 30.5792 33.997 30.042 33.9808 29.7314C33.9646 29.4208 33.7898 28.1553 33.709 27.8285C33.6215 27.5016 33.453 27.3397 33.4274 27.3397C33.4048 27.3463 33.2687 27.9548 33.2687 28.1077C33.2687 28.2607 33.2362 28.6289 33.2362 28.7228C33.2136 28.7161 33.204 28.6588 33.204 28.6353C33.1716 28.7161 33.1328 28.8587 33.1166 28.8749C33.1004 28.8911 33.1392 28.739 33.1166 28.7065C33.094 28.6741 33.0526 28.6903 33.0615 28.6095C33.0654 28.5615 33.0729 28.514 33.0841 28.4672C33.0841 28.4672 32.9871 28.6095 32.916 28.9719C32.8448 29.3312 32.8448 29.341 32.819 29.3732C32.7964 29.4123 32.6669 29.5415 32.6602 29.5902C32.6538 29.6774 32.7801 29.7649 32.7897 29.8133C32.7961 29.8944 32.6765 30.2696 32.6376 30.4533C32.5988 30.637 32.615 30.9969 32.5736 31.1814C32.5412 31.3497 32.5096 31.4468 32.3989 31.5179C32.4798 31.5341 32.5574 31.5567 32.5574 31.5567C32.5574 31.5567 32.6707 32.0356 32.3827 32.4435C32.2792 32.5858 32.2534 32.6507 32.1433 32.7801C31.9264 33.0195 31.7581 33.2921 31.7418 33.4694C31.7306 33.4171 31.7231 33.3641 31.7192 33.3107C31.7192 33.3107 31.3828 33.7024 31.2403 33.9257C31.056 34.2137 30.8002 34.1975 30.7283 34.2688C30.6564 34.34 30.6408 34.4693 30.6643 34.573C30.6003 34.589 30.48 34.6118 30.3989 34.861C30.3601 34.9903 30.263 35.117 30.1109 35.204C29.9588 35.2911 29.7743 35.3173 29.6804 35.3399C29.7613 35.3625 29.7937 35.3625 29.8325 35.3884C29.7841 35.4692 29.5607 35.5955 29.3116 35.7574C29.0624 35.9095 28.9425 36.1327 28.881 36.2784C28.817 36.4143 28.7225 36.5017 28.5704 36.518C28.6344 36.5568 28.7292 36.6472 28.7776 36.6765C28.7063 36.6927 28.5856 36.6927 28.3699 36.8772C28.1433 37.0649 28.0657 37.12 27.962 37.1362L27.9609 37.136Z" fill="#C39D3C"/>
<path fillRule="evenodd" clipRule="evenodd" d="M23.4581 38.6357C23.582 38.5488 23.7162 38.4776 23.8577 38.4238C24.3624 38.2233 24.8964 38.1845 25.1067 38.1198C25.3075 38.0558 25.466 37.9675 25.7152 37.9191C25.7086 37.9758 25.703 38.0291 25.697 38.0795C24.9624 38.3104 24.2144 38.4962 23.457 38.6357H23.4581Z" fill="#D2BA6B"/>
<path fillRule="evenodd" clipRule="evenodd" d="M32.7684 25.3593C32.7684 25.3593 32.665 25.9191 32.4804 26.272C32.2959 26.6248 32.0964 27.1134 32.0964 27.1134C32.0976 27.0033 32.1106 26.8936 32.1352 26.7863C31.9023 26.9222 31.3359 27.2493 31.1752 27.3948C31.0231 27.5307 30.7674 27.7702 30.7027 27.8835C30.8548 27.437 31.0133 27.0357 31.0394 26.8512C30.8064 27.0195 29.7188 27.9159 29.1526 28.5081L27.3888 29.9353C27.1853 30.0452 26.9756 30.1433 26.761 30.2293C26.457 30.3586 26.0977 30.4687 25.8323 30.5724C25.9036 30.3814 26.0166 30.2129 26.1754 30.0512C26.3437 29.8927 26.8484 29.3457 26.9261 29.0912C26.9973 28.8258 27.0135 28.6673 26.9197 28.4439C26.8322 28.4665 26.6317 28.4764 26.4958 28.5152C26.3599 28.554 26.2142 28.6995 26.2142 28.6995C26.2142 28.6995 26.3176 28.1073 26.541 27.5475C26.3727 27.5539 26.0847 27.6023 26.0847 27.6023C26.0847 27.6023 26.486 26.9293 27.1727 26.4601C26.9624 26.5049 26.7566 26.5687 26.5579 26.6509C26.1566 26.8192 25.7165 27.0684 25.3896 27.2043C25.574 26.9483 26.8685 25.1008 27.6388 23.379C28.4068 21.6606 28.6938 21.2205 28.8621 20.2982C28.9493 19.8419 28.9261 19.1676 28.9493 18.5636C28.9719 17.9648 29.0464 17.4276 28.998 17.0684C29.1985 17.3175 29.9494 18.0198 29.9752 19.5895C29.9979 21.159 29.257 23.2789 28.4704 24.4211C28.6624 24.4761 29.1599 24.541 29.671 23.6531C30.1822 22.7652 30.176 22.5173 30.3605 22.1483C30.3831 22.3328 30.3765 22.3974 30.3765 22.3974C30.3765 22.3974 31.1211 21.4946 31.4737 20.3586C31.545 20.8473 31.7553 21.2779 31.4251 22.1743C31.1307 22.9832 30.7456 23.1808 30.7456 23.1808C30.7456 23.1808 30.9365 23.1484 31.2179 22.98C31.2666 23.0997 31.257 23.236 31.3378 23.2843C31.4187 23.3325 31.5287 23.4137 31.545 23.4914C31.6322 23.3619 31.7681 23.1968 31.8103 23.0739C31.7779 23.3299 31.7553 24.4493 31.8743 25.0189C32.1237 24.9963 32.3793 24.98 32.554 24.5301C32.4343 24.9704 32.4343 25.2356 32.5152 25.6111C32.6479 25.5206 32.7676 25.3587 32.7676 25.3587L32.7684 25.3593Z" fill="#C0993A"/>
<path fillRule="evenodd" clipRule="evenodd" d="M24.3591 7.52113C24.3591 7.52113 24.1099 7.62459 23.686 7.62459C23.3172 7.62459 23.4207 7.4823 22.8447 7.4823C21.958 7.4823 18.8609 7.9943 18.3171 7.98705C17.9642 7.98065 19.5079 8.13915 19.5079 8.13915L23.4531 8.19419L24.2458 8.13019L24.5404 7.53073L24.3591 7.52113Z" fill="#A88F33"/>
<path fillRule="evenodd" clipRule="evenodd" d="M14.1299 15.233C14.1299 15.233 13.6249 15.6181 13.4114 15.9127C13.1979 16.2073 13.0846 16.4013 12.8418 16.6408C12.8988 16.643 12.9557 16.6354 13.0101 16.6182C13.0101 16.6182 13.0101 16.6822 12.9713 16.6991C13.0392 16.6915 13.107 16.715 13.1556 16.7631C13.0844 16.8019 12.8902 16.9962 13.0423 17.226C13.1556 17.4007 13.3952 17.4167 13.3952 17.4167C13.3952 17.4167 13.3401 17.5754 13.5699 17.5592C14.0651 17.5366 14.6184 17.3197 14.874 17.3747C15.13 17.4387 15.2755 17.4622 15.4566 17.7762C15.6486 18.0868 15.8159 18.1354 15.8159 18.1354C15.8159 18.1354 15.9292 17.8472 15.9033 17.4169C15.9962 17.185 16.0477 16.9386 16.0555 16.6888L15.8871 15.4494L15.1526 14.5205L14.2012 15.0481L14.1299 15.2324V15.233Z" fill="#E3C571"/>
<path fillRule="evenodd" clipRule="evenodd" d="M15.0322 15.0486C15.0322 15.0486 15.1035 15.2169 15.4013 15.2329C15.3689 15.3041 15.3689 15.314 15.3787 15.3688C15.3851 15.4238 15.3947 15.5047 15.3947 15.5047C15.4275 15.4888 15.4571 15.4671 15.4821 15.4407C15.4984 15.5119 15.4659 15.625 15.4821 15.7061C15.4922 15.7554 15.5084 15.8032 15.5306 15.8484C15.5353 15.8373 15.5407 15.8265 15.5468 15.8161C15.5532 15.7999 15.6108 15.9909 15.7701 16.1361C15.77 16.1138 15.7755 16.0918 15.7861 16.0721C15.7886 16.1127 15.802 16.1519 15.825 16.1854C15.813 16.1797 15.8022 16.1721 15.7928 16.1628C15.7928 16.1628 15.8088 16.6748 15.8962 16.9396C15.9108 16.9224 15.9238 16.904 15.9351 16.8845C15.9351 16.8685 15.9287 17.027 15.9124 17.1405C15.8898 17.2538 15.906 17.4123 15.906 17.4123C15.9644 17.3664 16.0285 17.3283 16.0968 17.299C16.1938 17.26 16.3528 17.1403 16.4496 16.8749C16.5058 16.7246 16.5491 16.5698 16.5791 16.4122C16.6104 16.4724 16.632 16.5372 16.6431 16.6042C16.6497 16.685 16.8018 16.643 16.8018 16.643L16.8343 16.2902L17.0263 15.4908L17.201 14.9957L18.0424 13.6852L19.5626 12.5144L20.8895 12.8186L22.0091 11.2975L20.0803 10.1389L18.2551 10.3298L16.5985 12.6242L15.2718 14.7053L15.0322 15.0484L15.0322 15.0486Z" fill="#D8B65B"/>
<path fillRule="evenodd" clipRule="evenodd" d="M24.5925 11.7282C24.5925 11.7282 24.4792 11.7508 24.1524 11.9202C23.8256 12.0896 23.599 12.1433 23.4727 12.3925C23.3464 12.6417 23.3368 12.8392 23.3368 12.8392C23.3368 12.8392 23.5602 12.7422 23.6897 12.7097C23.8256 12.6775 23.9777 12.6871 23.9615 12.7422C23.9459 12.7799 23.9243 12.8148 23.8975 12.8456C23.8975 12.8456 24.1535 12.8392 24.1466 12.9655C24.1398 13.0918 24.0982 13.2309 24.0498 13.2923C24.0011 13.3563 23.8006 13.4511 23.778 13.5255C23.723 13.6776 23.8006 13.684 23.7714 13.8069C23.7488 13.9268 23.6421 14.1598 23.2925 14.5674C22.9332 14.9753 22.7805 15.2633 22.7805 15.2633C22.7805 15.2633 22.6057 14.9365 22.5151 14.6549C22.4511 14.6871 22.1074 14.8781 22.1074 14.8781L21.3112 12.1047L21.3272 11.9202C21.3272 11.9202 21.3985 11.8329 21.4147 11.671C21.295 11.6322 21.2788 11.5998 21.1201 11.4479C20.9614 11.296 20.8321 11.1112 20.5669 10.9849C20.5281 10.9137 20.4794 10.8168 20.2853 10.7778C20.0912 10.7387 19.9747 10.7067 19.9747 10.7067C19.9747 10.7067 20.0782 10.6677 20.1268 10.5869C20.0069 10.6031 19.9101 10.6419 19.6479 10.6355C19.3825 10.6289 19.3533 10.6193 19.2078 10.6419C19.0623 10.6645 18.8878 10.7294 18.8227 10.506C18.7514 10.451 18.5993 10.4996 18.4698 10.6903C18.3403 10.881 18.2951 11.0334 18.0459 11.1078C18.0284 11.2177 17.99 11.3231 17.9327 11.4184C17.8614 11.5383 17.7481 11.658 17.596 11.8359C17.3565 12.1175 17.3953 12.5802 17.0134 12.9331C16.6283 13.2857 17.0774 11.9556 17.0774 11.9556L17.6922 10.4836L19.4431 8.7716L22.1616 8.58728L22.427 9.99528L23.7539 10.4516L24.5921 11.7299L24.5925 11.7282Z" fill="#D3AE4D"/>
<path fillRule="evenodd" clipRule="evenodd" d="M25.0224 12.0388L23.88 10.3917L23.0807 9.77662C23.0807 9.77662 22.5111 8.7283 22.4723 8.69587C22.4398 8.67326 21.9027 8.61502 21.5596 8.59241L21.6236 8.75091C21.6985 8.77523 21.765 8.8201 21.8156 8.88041C21.9677 9.05513 22.0648 9.38515 21.7185 9.73801C21.8544 9.78643 21.9105 9.80201 22.0292 9.78643C21.9095 9.92894 21.6377 10.2332 21.6215 10.4985C21.6053 10.7153 21.7412 10.7799 21.7412 10.7799C21.7412 10.7799 21.534 11.0195 21.5244 11.4199C21.6222 11.3096 21.7293 11.2078 21.8444 11.1157C22.084 10.9237 22.414 10.7078 22.6374 10.5719C22.6343 10.629 22.642 10.686 22.66 10.7402C22.66 10.7402 23.0773 10.3972 23.428 10.5493C23.5865 10.6206 23.5152 10.8439 23.5152 10.8439C23.5152 10.8439 23.7322 10.7631 23.8843 10.9152C24.0364 11.0673 24.2532 11.4588 24.3632 11.6111C24.4117 11.6823 24.538 11.8182 24.6672 12.0284C24.8439 12.3229 24.9914 12.634 25.1076 12.9572C25.114 12.8277 25.14 12.6466 25.3636 12.6466L25.0237 12.0382L25.0224 12.0388Z" fill="#CAA13E"/>
<path fillRule="evenodd" clipRule="evenodd" d="M7.89629 16.7184C7.89629 16.7184 7.81543 16.5177 7.89629 16.1262C7.97714 15.7348 8.10343 15.5502 8.14546 14.9742C8.18749 14.3982 8.56295 13.6797 8.56295 13.6797L9.60167 13.2074L10.3364 13.4079L10.5531 14.3918L9.62429 14.9038C9.62429 14.9038 9.57586 15.1206 9.31367 15.2953C9.05149 15.47 8.68903 15.6059 8.60178 15.784C8.54962 15.8931 8.51155 16.0084 8.4885 16.1271C8.4885 16.1271 8.22311 16.072 8.06461 16.2468C7.89629 16.4249 7.90269 16.5834 7.89629 16.7193V16.7184Z" fill="#F4EFC8"/>
<path fillRule="evenodd" clipRule="evenodd" d="M9.9932 16.4564C9.9932 16.4564 9.90574 16.5114 9.8411 16.6484C9.7771 16.5449 9.62414 15.9299 9.61774 15.3765C9.61134 14.8231 9.57827 14.6859 9.70627 14.4952C9.83427 14.3045 10.3362 14.1035 10.265 13.7601C10.1937 13.4333 9.89592 13.2974 9.53027 13.3912C9.27427 13.4552 9.08376 13.9997 8.81838 14.2714C8.61763 14.4786 8.37827 14.4462 8.31363 14.5594C8.22616 14.7115 8.30702 14.8637 8.2812 14.9607C8.27459 14.9931 8.19374 15.1679 8.04803 15.3782C7.75363 15.8021 7.25528 16.4009 7.19043 16.9381C7.21304 16.6339 7.19704 16.6275 7.2779 16.2909L7.22926 16.21L7.54926 15.1615L7.7564 14.2975L8.21934 12.8506L9.0347 11.3718L9.82766 10.485L10.6528 10.54L10.7499 11.7795L11.2224 14.1065L12.2159 15.3298L10.6236 16.4014L9.99256 16.4564H9.9932Z" fill="#EBCC73"/>
<path fillRule="evenodd" clipRule="evenodd" d="M10.4891 16.8959C10.4891 16.8959 10.3532 16.9284 10.3045 16.9026C10.2559 16.8767 10.2077 16.8475 10.2237 16.8151C10.2397 16.7827 10.3271 16.7278 10.3271 16.7018C10.3309 16.6529 10.295 16.6099 10.2463 16.6047C10.1718 16.5951 10.1492 16.6436 10.1492 16.6436C10.1492 16.6436 10.078 16.5887 10.0199 16.5796C10.0543 16.5754 10.0888 16.5732 10.1234 16.573C10.034 16.5324 9.9391 16.5052 9.8418 16.4921C9.92265 16.4437 10.0814 16.3012 10.1848 16.3012C10.2883 16.3012 10.3532 16.2852 10.3369 16.2301C10.3207 16.1751 10.2399 16.0942 10.1526 16.0618C10.1848 16.023 10.2077 15.9647 10.13 15.8058C10.0489 15.6473 10.0814 15.5404 10.1074 15.5018C10.13 15.4532 10.2109 15.3659 10.2497 15.3109C10.2885 15.2558 10.3209 15.1814 10.3856 15.1426C10.418 15.1199 10.5215 15.0786 10.6252 15.0391C10.7384 15.0003 10.8323 14.9516 10.8969 15.0003C10.9682 15.0487 10.9358 15.1135 10.9358 15.1135C10.9358 15.1135 11.1591 15.0325 11.3597 15.1362C11.5604 15.233 12.0492 15.2947 12.0492 15.2947L12.2243 15.6475L11.0657 16.641L10.5868 16.8806L10.4897 16.8966L10.4891 16.8959Z" fill="#E5C66B"/>
<path fillRule="evenodd" clipRule="evenodd" d="M12.0968 15.272C12.0968 15.272 11.7375 15.5115 11.6567 15.5988C11.7051 15.6054 11.7859 15.6378 11.7535 15.6863C11.7147 15.7347 11.4817 15.903 11.3522 16.0617C11.2163 16.2202 11.0868 16.421 11.0416 16.5181C10.9932 16.6053 10.6241 16.8611 10.498 16.8933C10.7634 16.8933 11.2974 16.5665 11.4979 16.5665C11.4915 16.6635 11.553 16.7736 11.6663 16.7832C11.7795 16.7928 12.1064 16.8545 12.5465 16.5827C12.9866 16.3173 12.8411 16.1198 13.0254 15.9905C13.3783 15.7573 13.5206 15.5502 13.7147 15.4209C13.9088 15.2916 14.0093 15.2622 14.0093 15.2622C14.0093 15.2622 14.0157 15.1651 14.0733 15.1749C14.1054 15.1786 14.1329 15.1998 14.1446 15.2299C14.1446 15.2299 14.4812 14.9904 14.9126 14.9257C14.9025 14.9212 14.8944 14.9132 14.8899 14.9031C14.8899 14.9031 14.9222 14.8869 14.9288 14.8707C14.9288 14.8707 14.9514 14.8383 14.9676 14.8545C14.9838 14.8707 15.0064 14.9904 15.0388 15.039C15.1101 15.0066 15.246 14.7024 15.246 14.7024L15.573 13.7671V12.9127L15.317 12.9614L13.397 13.7767L12.2318 14.984L12.0959 15.272H12.0968Z" fill="#E6BD62"/>
<path fillRule="evenodd" clipRule="evenodd" d="M17.6243 11.0809C17.7282 11.0557 17.8278 11.0153 17.9198 10.961C17.881 11.0647 17.881 11.178 17.7127 11.4239C17.5443 11.6699 17.5379 11.7055 17.402 11.9611C17.2662 12.2265 17.2499 12.6084 17.1204 12.7765C17.1785 12.7483 17.2407 12.7297 17.3048 12.7216C17.3048 12.7216 17.1755 12.8349 17.1204 12.9546C17.0654 13.0743 16.9683 13.3235 16.729 13.4758C16.4896 13.6281 16.1852 13.725 15.8584 14.0842C15.5313 14.4368 15.1949 14.8836 15.0264 15.0442C15.1138 14.8921 15.2335 14.5879 15.2659 14.3874C15.2984 14.1868 15.2593 13.947 15.3144 13.6819C15.3694 13.4167 15.3694 13.2255 15.6344 12.7626C15.8993 12.2997 16.3529 10.6914 16.3529 10.6914L17.3302 10.3807L17.6248 11.0798L17.6243 11.0809Z" fill="#B6933F"/>
<path fillRule="evenodd" clipRule="evenodd" d="M16.9188 10.4888C16.9188 10.4888 16.6244 10.9127 16.5436 11.2882C16.4627 11.6636 16.5369 11.6312 16.4885 11.8157C16.4596 11.9282 16.4596 12.0463 16.4885 12.1588C16.5905 11.9945 16.7301 11.8569 16.8958 11.7573C17.1742 11.5892 17.4007 11.4693 17.5358 11.327C17.6717 11.1749 17.7849 10.9257 18.0793 10.7348C17.9597 10.7186 17.7913 10.6635 17.7593 10.6708C17.8792 10.5349 18.2383 10.3277 18.6007 10.0786C18.96 9.82256 18.9374 9.7193 19.52 9.46373C19.3291 9.49616 19.2384 9.44752 19.0797 9.46373C19.1437 9.32784 19.3677 9.26298 19.5917 9.03984C19.8157 8.81669 19.4494 8.48645 19.4494 8.48645L17.7427 9.51877L16.9175 10.4897L16.9188 10.4888Z" fill="#C49937"/>
<path fillRule="evenodd" clipRule="evenodd" d="M12.2881 9.71846L12.3269 9.40784L12.8157 8.6247L13.327 7.24934V5.36902L13.2882 4.28166L13.369 3.56955L13.4305 3.3432L13.4953 3.25574L13.9126 3.47248L14.4888 4.25563L14.5439 5.7671L13.9839 8.15216L12.3852 9.89659L12.2881 9.71846Z" fill="#DFC068"/>
<path fillRule="evenodd" clipRule="evenodd" d="M13.5602 3.16818C13.5602 3.16818 13.3042 3.17479 13.2496 4.23954C13.195 5.30428 13.1685 5.86407 13.1297 6.39164C13.0909 6.91922 13.0004 7.23943 12.955 7.55026C12.9095 7.86108 12.8837 8.28476 12.7382 8.54375C12.6742 8.66343 12.5375 9.0389 12.217 9.3205C11.8578 9.63111 11.321 9.84807 11.2398 9.86428C11.0973 9.8965 10.3755 9.96775 10.0811 10.1297C9.97768 10.1847 9.79955 10.2494 9.60222 10.4339C9.21054 10.7865 8.68958 11.4176 8.31411 12.1781C7.73811 13.3141 7.16211 16.5211 7.16211 16.5211L7.2916 16.3044C7.2916 16.3044 7.30782 16.0164 7.59582 15.5114C7.87742 15.0067 7.79656 14.4403 8.18803 13.4726C8.34014 13.1038 8.53107 12.6248 8.76403 12.2169C9.1331 11.5535 9.5796 10.9839 10.0295 10.6732C10.764 10.1685 11.5732 10.0584 11.5732 10.0584L12.4438 9.48242C12.4438 9.48242 12.5959 9.18802 12.7967 8.85138C13.0781 8.37906 13.4367 7.85148 13.515 7.08455C13.6349 5.94855 13.3466 5.20423 13.3629 4.53116C13.3791 3.8581 13.3855 3.36295 13.5216 3.24306C13.6577 3.12316 13.5604 3.1686 13.5604 3.1686L13.5602 3.16818Z" fill="#A88F33"/>
<path fillRule="evenodd" clipRule="evenodd" d="M13.56 8.24913C13.56 8.24913 13.944 7.30407 14.1198 6.46588C14.1522 6.29756 14.2168 6.12945 14.2331 5.99356C14.3139 5.2006 14.3365 4.87377 14.2331 4.44007C14.1522 4.12007 13.8416 3.83164 13.6797 3.60807C13.5212 3.37489 13.4467 3.28807 13.4791 3.239C13.5116 3.18993 13.6376 3.10972 13.7605 3.11932C14.0245 3.127 14.2737 3.24268 14.45 3.43932C14.6992 3.72732 14.8965 4.70481 14.8965 4.70481L15.1041 5.99463L15.6317 7.61916L13.5604 8.25041L13.56 8.24913Z" fill="#C99E3D"/>
<path fillRule="evenodd" clipRule="evenodd" d="M17.1682 7.26547C17.1682 7.26547 17.0969 7.29769 16.9676 7.26547C16.9789 7.37319 16.9289 7.47813 16.8381 7.53726C16.7022 7.48222 15.4301 7.5923 15.4301 7.5923C15.4301 7.5923 14.8379 7.48862 14.6534 6.70547C14.5241 6.1843 14.7505 5.46601 14.676 4.99347C14.5627 4.29758 14.4042 4.16147 14.388 3.94494C14.3718 3.72841 14.3556 3.67315 14.3556 3.53726C14.2843 3.52105 14.2423 3.49843 14.1713 3.49843C14.155 3.43443 14.1873 3.37854 14.1162 3.26526C14.155 3.28147 14.4204 3.3139 14.731 3.6083C14.987 3.84787 14.987 3.93513 15.0257 3.98377C15.0741 4.03219 15.4658 4.36777 15.6341 4.70227C15.8024 5.03678 16.1292 6.10345 16.2037 6.27817C16.2263 6.34942 16.2749 6.42067 16.3957 6.58238C16.5834 6.81555 16.8584 7.20105 17.169 7.26505L17.1682 7.26547Z" fill="#B58634"/>
<path fillRule="evenodd" clipRule="evenodd" d="M15.0713 4C15.2673 4.3167 15.4435 4.6453 15.5986 4.98389C15.7896 5.41419 15.9029 5.76704 16.1424 6.05504C16.0129 5.67979 15.7832 4.94187 15.6473 4.67968C15.4952 4.40235 15.1846 4.10368 15.0713 4.00021V4Z" fill="#A88F33"/>
<path fillRule="evenodd" clipRule="evenodd" d="M12.8704 9.32053C12.8704 9.32053 12.5436 9.40138 11.9351 9.72181C11.7344 9.82527 11.5437 9.91253 11.3591 9.99359C10.8798 10.2103 10.3657 10.4107 9.95776 10.5212C9.99019 10.56 10.0062 10.576 10.0062 10.576C10.0062 10.576 10.0062 10.7347 10.0937 10.8252C10.0452 10.8738 9.39776 11.3139 9.58891 12.7863C9.71819 12.7379 9.87029 12.6731 9.89291 12.6731C9.93195 12.6797 9.94155 12.7863 9.98997 12.7863C10.0384 12.7863 10.1971 12.7223 10.3654 12.5047C10.359 12.5922 10.262 13.4724 10.7829 14.0646C10.88 13.9514 11.126 13.5759 11.126 13.5759L11.1324 13.4562C11.1324 13.4562 11.155 13.0387 11.2911 12.6568C11.4272 12.275 11.6924 11.9934 11.6924 11.9934L13.0771 10.016L12.87 9.32031L12.8704 9.32053Z" fill="#E6C367"/>
<path fillRule="evenodd" clipRule="evenodd" d="M11.5761 12.224C11.5127 12.2688 11.4428 12.3037 11.3689 12.3275C11.3463 12.2466 11.3139 11.9682 11.5048 11.6964C11.7282 11.3694 12.2167 10.9455 12.3526 10.6084C12.4401 10.3915 12.4012 9.84788 13.178 9.15199C13.9547 8.45609 14.2587 8.21673 14.2587 8.21673L15.5144 7.58569L17.0581 8.19412L16.2912 11.2L15.6958 12.608L13.3278 12.1615L11.5759 12.224H11.5761Z" fill="#DCBA5A"/>
<path fillRule="evenodd" clipRule="evenodd" d="M12.4805 11.4078L12.7751 11.0389V10.7767C12.7751 10.7767 13.1019 10.6893 13.4545 10.33C13.8072 9.97075 14.2959 9.28147 14.7264 9.32349C15.1569 9.37213 15.199 10.2587 15.2152 10.5081C15.2314 10.7575 15.2864 11.3235 15.3737 11.6279C15.4708 11.9321 14.3252 13.0841 14.3252 13.0841L13.5471 13.6763L12.4805 11.4078Z" fill="#E9CE77"/>
<path fillRule="evenodd" clipRule="evenodd" d="M13.3916 14.4789C13.3916 14.4789 13.6312 14.1034 13.4556 14.0226C13.5591 13.7896 13.75 13.5436 13.75 13.5436C13.75 13.5436 13.8859 13.2072 14.326 12.7929C14.7661 12.3786 15.0381 12.1034 15.1094 11.8252C15.1533 11.6439 15.1772 11.4584 15.1806 11.2719C15.2282 11.3107 15.2791 11.3453 15.3327 11.3753C15.404 11.4077 15.7404 11.6859 15.692 12.2459C15.6435 12.8059 15.436 13.0389 15.436 13.0389C15.436 13.0389 15.2354 13.2394 15.0931 13.3431C14.9408 13.4466 14.886 13.5663 14.6302 13.5761C14.6565 13.5552 14.6861 13.5387 14.7177 13.5274C14.7177 13.5274 14.4523 13.4952 14.3098 13.6245C14.1673 13.7538 13.8643 14.1521 13.7122 14.272C13.5601 14.369 13.3922 14.4791 13.3922 14.4791L13.3916 14.4789Z" fill="#CDAE50"/>
<path fillRule="evenodd" clipRule="evenodd" d="M24.152 8.18428C23.7697 8.04493 23.3679 7.96632 22.9612 7.95132C22.2815 7.9287 21.288 7.96753 20.3139 7.97393C19.2654 7.98033 18.3139 7.61468 16.9936 7.55004C16.7769 7.42054 16.2256 6.85414 14.5049 8.05478C14.6083 8.04838 15.7542 7.7894 16.152 8.28796C16.5533 8.7831 16.44 9.62449 16.3852 9.82502C16.2815 10.2717 15.9449 10.9222 15.8092 11.3785C15.6735 11.8348 15.7055 12.0746 15.6085 12.3946C15.5114 12.7146 15.2978 12.8736 15.4239 13.2424C15.5922 13.1389 15.6799 13.1389 15.9611 12.5079C16.2423 11.8769 16.1845 11.4269 16.6506 10.893C17.1069 10.3558 17.8666 9.62108 18.1554 9.43654C18.4443 9.25201 20.7378 8.06118 23.1393 9.19718C23.7185 9.13574 24.1522 8.18406 24.1522 8.18406L24.152 8.18428Z" fill="#D2A83E"/>
<path fillRule="evenodd" clipRule="evenodd" d="M15.4726 7.74404C15.4702 7.71972 15.4648 7.69578 15.4566 7.67278C15.4341 7.62546 15.4046 7.5818 15.3691 7.54329C15.3691 7.54329 14.7995 7.43982 14.5115 7.47204C14.0066 7.52708 13.5502 8.15172 13.3367 8.47214C13.1231 8.79257 12.8578 9.2875 12.5698 9.54329C12.5729 9.51837 12.5672 9.49314 12.5535 9.47204C12.5535 9.47204 12.5698 9.49465 12.5375 9.52708C12.5053 9.5595 12.5051 9.5755 12.5213 9.59108L12.57 9.6395C12.586 9.6395 13.0327 9.43876 13.6411 8.8715C14.2884 8.27929 14.7835 7.9755 15.0425 7.8714C15.1806 7.8127 15.325 7.76997 15.4728 7.74404H15.4726Z" fill="#C29637"/>
<path fillRule="evenodd" clipRule="evenodd" d="M26.5209 5.31067C26.5209 5.31067 26.4172 5.43995 26.2877 5.58246C25.9997 5.88667 25.6243 6.2295 25.3038 6.58235C24.9998 6.91899 24.6568 7.18118 24.2715 7.62128C23.8862 8.06139 23.4395 8.54992 23.3265 8.69243C23.223 8.83494 23.1421 9.0679 23.1421 9.18758C23.0871 9.14875 23.0225 9.10672 23.0225 9.10672C23.0497 9.15753 23.0822 9.2053 23.1195 9.24923C23.2004 9.36251 23.3265 9.50523 23.3913 9.59227C23.4709 9.70307 23.528 9.82838 23.5594 9.96112C23.5982 9.96752 23.8474 10.0162 24.1582 9.5048C24.4691 8.99344 24.8765 8.43366 24.8765 8.43366L25.5238 7.47238L25.9317 6.65702L26.4437 5.74438L26.5216 5.31067H26.5209Z" fill="#AC8132"/>
<path fillRule="evenodd" clipRule="evenodd" d="M27.1847 4.6571C27.1847 4.6571 26.793 4.9771 26.6409 5.1691C26.4888 5.3611 26.1289 5.865 26.1289 5.865L26.2584 5.84878L26.9155 5.26638L27.1715 4.81006L27.1845 4.65796L27.1847 4.6571Z" fill="#A88F33"/>
<path fillRule="evenodd" clipRule="evenodd" d="M27.0652 30.3755C27.0652 30.3755 27.0588 30.1101 27.2077 29.9516C27.3598 29.7929 27.7449 29.5599 28.1203 28.6861C28.4958 27.8123 28.5376 27.6149 28.5376 27.6149C28.5376 27.6149 27.8645 28.1909 27.4496 28.3268C27.5467 28.1261 27.6017 27.9838 27.6504 27.8801C27.5953 27.8317 27.3624 27.7767 27.3397 27.7508C27.469 27.6213 27.5403 27.3041 27.8025 27.0938C28.1391 26.8378 28.7539 26.3979 29.2318 26.0058C29.7097 25.6137 30.6492 24.7017 30.7691 24.4363C30.8403 24.5397 30.8563 24.6044 30.8563 24.6044C30.8563 24.6044 30.384 25.2194 30.138 25.6109C29.9211 25.9475 29.9373 26.1385 29.9373 26.1385L30.384 25.9465C30.384 25.9465 30.5133 26.4254 29.9277 27.1537C30.1837 27.0567 30.2869 27.1149 30.4324 27.0338C30.1929 27.1861 29.8628 27.3933 29.5522 27.9627C29.248 28.5323 28.8337 29.1957 28.1348 29.6098C27.4552 30.0467 27.0635 30.3736 27.0635 30.3736L27.0652 30.3755Z" fill="#A67A2E"/>
<path fillRule="evenodd" clipRule="evenodd" d="M25.3106 8.52122C25.3106 8.52122 25.0452 9.07439 25.0064 9.5049C25 9.60858 24.974 9.68943 24.974 9.80911C24.9676 10.1942 24.9966 10.6247 24.91 10.8252C24.8776 10.7444 24.8614 10.6893 24.8289 10.6571C24.7805 10.793 24.693 11.2169 24.6218 11.3754C24.5896 11.2719 24.5183 10.9127 24.5249 10.4888C24.5315 10.0649 24.5409 9.98383 24.5409 9.89658C24.5249 10.0259 24.4375 10.2008 24.405 10.3043C24.3566 10.217 24.3016 10.1037 24.2367 10.0099C24.1979 10.0739 24.1495 10.1684 24.1074 10.217C24.1008 10.1782 24.0848 10.0745 24.075 9.92901C24.0686 9.76069 24.0588 9.54394 24.0686 9.4985C24.0846 9.41125 24.2207 9.06821 24.5087 8.75418C24.8518 8.37871 25.2046 7.65722 25.3081 7.43386C25.4115 7.2105 25.8516 6.28186 25.8516 6.28186H26.1883L25.6995 7.39503C25.6995 7.39503 25.4051 8.00346 25.253 8.22703C25.1009 8.45061 24.7805 9.09125 24.638 9.34042C24.7415 9.20453 24.8289 9.13327 24.9326 9.00378C25.0329 8.91311 25.3111 8.52165 25.3111 8.52165L25.3106 8.52122Z" fill="#8C6228"/>
<path fillRule="evenodd" clipRule="evenodd" d="M27.1907 4.61487C27.1357 4.78411 27.0488 4.94125 26.9347 5.0778C26.7339 5.31737 26.3034 5.63759 26.0933 5.89316C25.9013 6.14233 25.5173 6.82202 25.6918 7.62777C25.7558 7.45305 25.8763 7.10681 26.1968 6.71513C26.5172 6.32345 26.8602 5.87375 27.0288 5.52431C27.1969 5.17145 27.2195 4.89327 27.2195 4.89327L27.2835 4.81241L27.2446 4.62788L27.1896 4.61487L27.1907 4.61487Z" fill="#CBA94C"/>
<path fillRule="evenodd" clipRule="evenodd" d="M33.744 26.0808C33.744 26.0808 33.6145 25.7282 33.5757 25.4077C33.5369 25.0873 33.6397 25.0237 33.5206 24.657C33.4494 24.4337 33.3201 24.465 33.2877 24.4337C33.2553 24.4023 33.2326 24.0648 33.239 23.8803C33.2454 23.6957 33.2326 23.4564 33.2002 23.3527C33.1518 23.3139 33.1194 23.2814 33.0481 23.0421C32.9673 22.8025 32.9284 22.6828 32.8896 22.6118C32.8508 22.5407 32.7373 22.4759 32.7373 22.4046C32.7373 22.2621 32.8668 22.1879 32.8668 22.1486C32.8604 22.0678 32.7633 22.1326 32.7373 22.1098C32.7051 22.071 32.8184 21.838 32.7763 21.8056C32.7601 21.7896 32.6468 21.9255 32.6176 21.8867C32.5852 21.8476 32.5464 21.4626 32.4881 21.207C32.4333 20.9578 32.3748 20.7767 32.3684 20.7022C32.362 20.631 31.9217 19.3753 31.815 19.0711C31.7291 18.814 31.6567 18.5526 31.5983 18.2879C31.5659 18.1358 31.5433 17.825 31.527 17.8574C31.5108 17.8899 31.5206 18.0484 31.4946 18.042C31.472 18.0354 31.3912 17.4822 31.3653 17.3947C31.3427 17.3073 31.2066 17.0107 31.1733 16.7961C31.1409 16.5791 31.0699 16.0127 31.0212 15.6277C30.9726 15.2426 30.95 15.0841 30.95 14.9877C30.9579 14.7518 30.9449 14.5157 30.9112 14.2822C30.8472 13.8743 30.7192 13.3791 30.6069 13.0914C30.3902 12.5476 29.814 11.156 29.7109 10.8098C29.7109 10.7223 29.8242 10.7709 29.8242 10.7709C29.8242 10.7709 30.1056 11.4764 30.3128 12.02C30.5135 12.5638 30.7044 13.0427 30.7531 13.0914C30.7919 13.1398 31.0961 13.6738 31.232 14.5476C31.3679 15.4214 31.4163 16.2271 31.4974 16.7643C31.5362 17.0203 31.5686 17.2919 31.6495 17.5637C31.7368 17.8583 31.8726 18.1625 32.0508 18.6284C32.2029 19.0201 32.3162 19.3469 32.3776 19.6285C32.4489 19.9878 32.4489 20.2596 32.4909 20.4377C32.5299 20.5898 32.588 20.8938 32.7241 21.3337C32.8602 21.7736 33.0605 22.3402 33.1964 22.6929C33.462 23.3983 33.5804 23.9874 33.6205 24.3014C33.6559 24.625 33.7758 25.7448 33.7434 26.0812L33.744 26.0808Z" fill="#A88F33"/>
<path fillRule="evenodd" clipRule="evenodd" d="M27.2077 4.57607L27.1915 4.61489C27.1915 4.61489 27.2399 4.63111 27.2303 4.69596C27.231 4.78469 27.2256 4.87336 27.2141 4.96135C27.1981 5.07463 27.1657 5.16188 27.1593 5.23313C27.1593 5.38524 27.1819 5.55996 26.9673 5.99367C26.9033 6.11335 26.8638 6.21681 26.8314 6.28807C26.7506 6.46279 26.7343 6.48881 26.6631 6.56967C26.7764 6.50567 27.1843 6.24967 27.3912 6.28807C27.2489 6.36892 27.0319 6.52764 26.896 6.73479C26.9285 6.74119 27.0644 6.76721 27.28 6.73479C27.6393 6.67975 28.0406 6.55025 28.3932 6.57607C28.7785 6.59868 28.6264 6.11335 28.6264 6.11335L28.1818 5.13607L27.3404 4.54407L27.2077 4.57628V4.57607Z" fill="#BE9C44"/>
<path fillRule="evenodd" clipRule="evenodd" d="M29.4019 11.8966C29.4019 11.8966 29.0264 11.5211 28.8743 10.2326C28.7222 8.9381 28.7546 7.0326 28.7546 7.0326L28.4504 6.28828C28.4504 6.28828 28.3864 5.79314 28.227 5.60882C28.0677 5.4245 27.7547 5.11367 27.6122 4.96156C27.4697 4.80946 27.308 4.60231 27.2109 4.56988C27.2594 4.48903 27.4763 4.03271 28.3079 4.02631C29.1395 4.01991 29.3959 4.48263 29.4827 4.65095C29.5696 4.81927 29.9617 5.54695 30.1072 6.93362C30.243 8.31858 30.2497 8.42226 30.227 8.90119C30.2108 9.16658 30.1234 9.7814 29.971 10.4383C29.832 10.9951 29.6798 11.6165 29.4014 11.8979L29.4019 11.8966Z" fill="#A17C34"/>
<path fillRule="evenodd" clipRule="evenodd" d="M28.224 13.0001C28.3492 13.0092 28.4742 12.981 28.5833 12.9191C28.703 12.9127 29.1367 12.9677 29.4699 12.5438C29.4925 12.6407 29.551 12.9031 29.3986 13.136C29.4797 13.055 29.5994 13.0228 29.6156 13.0001C29.622 13.1198 29.7353 13.4887 29.2564 14.3851C29.3856 14.2428 29.5377 14.2492 29.6736 14.233C29.6802 14.4013 29.7707 14.9675 29.5313 15.2719C29.3728 15.4791 29.1138 15.4142 29.1138 15.4142C29.1176 15.369 29.1176 15.3235 29.1138 15.2783C29.1074 15.1909 29.075 15.1036 29.0978 15.0454C28.9727 14.9882 28.8587 14.9093 28.7612 14.8122C28.4796 14.5468 28.114 14.0939 28.0881 13.7573C28.0557 13.3818 28.3924 13.3009 28.3924 13.3009C28.3642 13.2757 28.3401 13.2462 28.3211 13.2135C28.3049 13.1586 28.2887 13.0712 28.224 13.0001Z" fill="#8C6228"/>
<path fillRule="evenodd" clipRule="evenodd" d="M25.7285 8.92887C25.7285 8.92887 25.7123 8.90626 25.625 9.00973C25.6412 8.90626 25.6574 8.80898 25.6638 8.71511C25.7051 8.62821 25.7586 8.54762 25.8225 8.47575C25.7739 8.57261 25.7415 8.66007 25.7415 8.66007C25.7415 8.66007 25.8614 8.43671 26.0361 8.30082C26.1558 8.20375 26.3079 8.15853 26.3725 8.06786C26.4438 7.97079 26.4276 7.95458 26.4438 7.93837C26.4438 7.93837 26.6025 7.8349 26.8453 7.53047C26.8775 7.49165 26.9261 7.44962 26.9585 7.41079C27.0134 7.38818 27.1429 7.32994 27.295 7.25207C27.4537 7.16482 27.6316 7.04514 27.7417 6.99607C27.9584 6.89901 28.1884 6.90882 28.2951 6.7565C28.3759 6.73389 28.4632 6.49111 28.4472 6.28418C28.5669 6.33261 29.1817 6.71447 29.3923 7.54946C29.5444 8.14167 29.2724 9.05431 29.1591 9.49463C29.0458 9.93495 29.0298 10.2616 28.8711 10.4621C28.6703 10.7277 28.0233 11.1021 27.8646 11.2875C27.7287 11.4396 27.321 11.8247 27.337 12.1028C27.3532 12.31 27.6088 12.4228 27.664 12.4621C27.7193 12.5014 27.7189 12.5496 27.8225 12.5261C27.9262 12.5026 27.9648 12.4548 28.0071 12.4548C28.0555 12.4612 28.0555 12.4711 28.0781 12.4711C28.0945 12.4706 28.1108 12.4684 28.1268 12.4644C28.1268 12.4644 28.1105 12.7591 27.4213 12.8484C27.3726 12.8551 27.3242 12.8711 27.2625 12.8809C27.3436 12.842 27.392 12.842 27.4795 12.7224C27.3824 12.7062 27.104 12.6899 27.0328 12.6673C27.0554 12.6285 27.1299 12.5248 27.1913 12.4764C27.2463 12.428 27.1849 12.4124 27.1365 12.4376C27.0531 12.4943 26.9731 12.5558 26.8969 12.6219C26.816 12.6931 26.7448 12.7902 26.6153 12.8779C26.5765 12.7484 26.5829 12.5024 26.7352 12.3245C26.6961 12.3309 26.6217 12.4442 26.5507 12.4216C26.5378 12.3035 26.5455 12.1841 26.5733 12.0687C26.6121 11.923 26.8224 11.6674 26.8224 11.6674L27.8385 9.85175L28.0553 8.47639L25.7285 8.92845V8.92887Z" fill="#92723A"/>
<path fillRule="evenodd" clipRule="evenodd" d="M25.6729 9.00653C25.6729 9.00653 25.6178 9.04536 25.7279 9.11981C25.7117 9.14242 25.6729 9.22328 25.6242 9.27832C25.5694 9.34232 25.511 9.382 25.4883 9.43704C25.4399 9.55032 25.4011 9.62797 25.4011 9.67661C25.4011 9.72525 25.3849 10.0359 25.249 10.2364C25.2003 10.3077 25.1453 10.4273 25.1065 10.5082C25.0256 10.6505 24.9544 10.7642 24.9382 10.8282C24.9059 10.9415 24.8833 11.2521 24.8833 11.2521C24.8833 11.2521 24.9546 11.1646 24.9804 11.1324C24.9414 11.2133 24.8993 11.3005 24.8379 11.3654C24.8767 11.3329 24.99 11.2521 25.1809 11.0838C25.4463 10.8606 25.8606 10.4851 26.3656 10.1878C26.2133 10.2428 26.084 10.2428 25.9805 10.259C26.0614 10.1782 26.7895 9.32376 27.1713 9.2429C27.1945 9.2135 27.2061 9.1766 27.2038 9.13922L26.8767 9.10701L26.2133 9.2493L26.1164 8.7373L25.6729 9.00589V9.00653Z" fill="#B18E3E"/>
<path fillRule="evenodd" clipRule="evenodd" d="M26.7282 11.9192C26.7282 11.9192 26.6407 12.0065 26.5599 12.2234C26.4976 12.1584 26.4443 12.0855 26.4012 12.0065C26.2815 11.8059 26.0972 11.5501 25.6667 11.6958C25.6603 11.5599 25.6504 11.4887 25.6667 11.3916C25.7379 11.3756 25.9547 11.2009 26.1714 10.9451C26.3237 10.7704 26.466 10.5697 26.5631 10.3141C26.6271 10.2654 26.7378 10.1846 26.8831 10.0907C27.0902 9.94843 27.3394 9.75408 27.3782 9.53733C27.2812 9.57616 27.074 9.67323 26.7632 9.65723C26.8831 9.60219 27.0674 9.54395 27.0448 9.30437C27.0934 9.27195 27.1323 9.24933 27.1323 9.24933C27.0958 9.23717 27.0574 9.23168 27.019 9.23312C27.0124 9.21051 27.0028 9.17829 26.9477 9.19429C26.8927 9.21029 26.8837 9.21051 26.8765 9.23312C26.8539 9.23973 26.7794 9.23312 26.7244 9.27216C26.6693 9.3112 26.5172 9.44027 26.459 9.46288C26.4816 9.42405 26.5138 9.36603 26.5138 9.36603C26.5138 9.36603 26.3553 9.38203 26.242 9.43003C26.0349 9.50128 25.7955 9.63077 25.5527 9.75685C25.5753 9.71803 25.5852 9.69285 25.6012 9.6856C25.6172 9.67835 25.6562 9.6696 25.6562 9.66299C25.6562 9.65637 25.6402 9.59899 25.6498 9.57573C25.7224 9.42197 25.808 9.27473 25.9058 9.13563C26.0191 8.98331 26.0417 8.76656 26.0417 8.76656L26.5368 8.51739L27.9284 8.19739L28.8315 8.25243L28.7182 8.87707L28.1848 9.96763L27.7285 10.9611L27.2073 11.5698L26.7284 11.9192H26.7282Z" fill="#543E26"/>
<path fillRule="evenodd" clipRule="evenodd" d="M28.9843 9.21596C28.9843 9.21596 28.4405 9.88903 28.2884 9.99271C28.3854 9.78556 28.9843 8.5525 29.201 8.20946C29.1526 8.17063 29.0877 8.17063 29.2398 7.56946C29.1106 7.87346 29.0651 8.03218 28.9585 8.11303C28.8518 8.19388 28.8386 8.16807 28.7665 8.16807C28.7801 8.14344 28.7857 8.11518 28.7825 8.08722C28.7825 8.08722 28.3261 8.03218 28.0145 8.03218C27.7028 8.03218 27.0858 8.2005 26.7426 8.33639C26.4708 8.44967 26.3187 8.44967 26.2216 8.52071C26.1245 8.60156 26.0695 8.68903 26.0209 8.71164C25.982 8.73426 25.7977 8.7925 25.7555 8.85394C25.7166 8.91794 25.652 8.98983 25.652 9.00604C25.652 9.02226 25.6358 9.04508 25.6844 9.02866C25.7004 9.02226 25.8203 8.9574 25.9562 8.87655C26.1405 8.77308 26.3639 8.6534 26.5258 8.58215C26.9885 8.39762 27.1342 8.43004 27.3412 8.39122C27.5579 8.35239 27.8688 8.26172 28.0757 8.26172C28.2828 8.25532 28.6745 8.26172 28.7652 8.27794C28.7264 8.31036 28.6939 8.34919 28.7101 8.48508C28.7101 8.52391 28.6777 8.56594 28.6461 8.6598C28.5493 8.92519 28.3648 9.3653 28.2621 9.58866C28.1198 9.89266 27.9581 10.1484 27.8781 10.307C27.7981 10.4655 27.6221 10.883 27.4478 11.1063C27.2736 11.3297 27.1825 11.4656 27.1278 11.5142C27.0732 11.5628 26.6811 11.8506 26.7104 11.9543C26.7816 11.9317 27.2315 11.7623 27.5581 11.3945C27.8848 11.0267 27.9498 10.8023 28.2054 10.6016C28.461 10.4008 28.6617 10.0644 28.7814 9.7862C28.8817 9.52722 28.859 9.44636 28.9851 9.2166L28.9843 9.21596Z" fill="#806031"/>
<path fillRule="evenodd" clipRule="evenodd" d="M17.2654 14.2396C17.2654 14.2396 17.1941 14.534 17.0322 14.6797C16.8737 14.8222 16.5921 14.9451 16.5599 15.1847C16.5211 15.424 16.8415 15.5439 16.8415 15.5439C16.8415 15.5439 16.6666 15.8319 16.6666 16.0487C16.6666 16.272 16.6602 16.3141 16.6828 16.5276C16.6571 16.5441 16.6353 16.5659 16.6188 16.5916C16.6188 16.5916 16.6348 16.7988 16.7935 16.928C16.9522 17.0573 17.0879 17.1352 17.1688 17.1028C17.1811 17.1291 17.1919 17.1562 17.2012 17.1838C17.2012 17.1838 17.3211 16.8796 17.4019 16.6142C17.4828 16.3424 17.554 16.381 17.5863 16.0154C17.6185 15.6497 17.9703 15.0219 17.9703 15.0219L18.2103 14.4854L17.8188 14.1812L17.2654 14.2394V14.2396Z" fill="#B6903C"/>
<path fillRule="evenodd" clipRule="evenodd" d="M17.9939 14.767C17.9132 14.8498 17.8387 14.9385 17.771 15.0324C17.6675 15.1749 17.5867 15.3041 17.4346 15.3594C17.2825 15.4146 17.1854 15.4142 17.195 15.5665C17.2046 15.7189 17.3471 15.7833 17.4279 15.8609C17.5154 15.9418 17.5867 16.0777 17.5478 16.23C17.5963 16.2074 17.6837 16.1814 17.7646 16.0066C17.8454 15.8319 18.411 14.7672 18.411 14.7672H17.9939V14.767Z" fill="#685026"/>
<path fillRule="evenodd" clipRule="evenodd" d="M20.2241 12.3106C20.2241 12.3106 20.2725 12.1814 20.2241 12.0875C20.1754 11.9904 19.881 11.958 19.7353 11.8479C19.5832 11.7346 19.3987 11.6559 19.2466 11.7056C19.2692 11.6506 19.3599 11.5307 19.2854 11.5049C19.2142 11.4823 18.949 11.602 18.8777 11.657C18.8065 11.712 18.6446 11.7767 18.6123 11.8157C18.5801 11.8548 18.5249 11.929 18.4925 11.8966C18.46 11.874 18.444 11.8157 18.389 11.8479C18.3339 11.8801 18.069 12.0971 18.0201 12.2234C17.9713 12.3497 17.8614 12.6313 17.5314 12.9515C17.2014 13.2717 17.0589 13.4791 17.1559 13.5988C17.253 13.7184 17.2984 13.6312 17.3146 13.7346C17.3271 13.8362 17.3216 13.9392 17.2984 14.0389C17.2596 14.2072 17.195 14.3657 17.2822 14.3981C17.5056 14.4694 17.7225 14.3341 17.771 14.3755C17.868 14.4628 17.7159 14.7768 17.9457 14.8382C18.1789 14.9022 18.4086 14.7832 18.4086 14.7832L19.2564 14.3269L20.072 13.8966L20.4893 13.0712L20.2655 12.3819L20.2228 12.3106H20.2241Z" fill="#D4B968"/>
<path fillRule="evenodd" clipRule="evenodd" d="M19.4239 14.2817C19.4239 14.2817 19.2814 14.0649 19.4563 13.8738C19.6312 13.6826 19.8802 13.602 19.9772 13.4823C19.9588 13.4595 19.934 13.4427 19.906 13.4339C19.9704 13.3186 20.0687 13.2259 20.1876 13.1683C20.1392 13.1199 20.0743 13.081 20.0033 13.081C19.8446 13.081 19.7473 13.1781 19.6018 13.1781C19.4595 13.1781 19.4433 13.1068 19.4433 13.1068C19.4433 13.1068 19.6828 13.0842 19.66 12.9774C19.6374 12.8641 19.596 12.8641 19.596 12.8641C19.596 12.8641 20.0587 12.6721 20.1396 12.5697C20.2204 12.4673 20.2108 12.3463 20.2271 12.2979C20.2819 12.2979 20.6023 12.1296 20.7318 12.2008C20.8613 12.2721 20.7706 12.4662 20.7706 12.4662C20.7706 12.4662 21.1625 12.1716 21.3622 11.8827C21.5369 11.899 21.6182 11.7631 21.7462 11.7631C21.9049 11.7631 22.1541 11.9798 22.2025 12.4425C22.235 12.7079 22.2834 12.86 22.235 13.3294C22.2123 13.5947 22.2187 14.1614 22.299 14.4425C22.3538 14.6659 22.4833 14.6433 22.4833 14.6433C22.4634 14.7113 22.424 14.7721 22.37 14.818C22.2825 14.8988 22.2729 15.1126 22.2825 15.1935C22.2954 15.2526 22.3117 15.3109 22.3312 15.3682C22.3312 15.3682 22.2277 15.4879 22.2017 15.5689C22.1791 15.6498 22.0724 15.7048 21.9945 15.7048C21.9167 15.7048 21.9557 15.6982 21.8522 15.7048C21.7488 15.7114 21.7163 15.7274 21.6515 15.7048C21.5866 15.6822 21.5382 15.6562 21.5642 15.4488C21.5868 15.2417 20.7649 14.7595 20.7649 14.7595L19.4209 14.2806L19.4239 14.2817Z" fill="#CCA849"/>
<path fillRule="evenodd" clipRule="evenodd" d="M17.88 16.3268C17.88 16.3268 18.1744 16.7185 19.3848 16.7185C19.9608 16.7185 20.1616 16.6635 20.2808 16.631C20.4103 16.5986 20.8957 16.4079 21.3844 15.8317C21.8245 15.3107 21.7274 15.0972 21.7274 15.0972L21.4714 15.0583L20.6394 15.1716L18.1776 16.2202L17.8789 16.3268H17.88Z" fill="#585136"/>
<path fillRule="evenodd" clipRule="evenodd" d="M18.7829 16.4239C18.7829 16.4239 17.7344 16.6571 17.7344 15.9936C17.7344 15.3464 18.3816 14.6667 18.5435 14.547C18.7119 14.4271 19.1131 14.291 19.1131 14.291H20.0808L20.2651 14.7798L20.1843 15.8347L18.7829 16.4237V16.4239Z" fill="#252211"/>
<path fillRule="evenodd" clipRule="evenodd" d="M19.751 14.4887C19.751 14.4887 19.5504 14.3042 19.0941 14.5527C18.6378 14.8013 18.2687 15.3207 18.2461 15.7924C18.2235 16.2097 18.5891 16.5205 19.1587 16.5367C19.5826 16.5527 19.8384 16.5043 19.9679 16.4727C19.9355 16.4339 19.7672 16.2236 19.7672 16.2236L19.7512 14.489L19.751 14.4887Z" fill="#C3B378"/>
<path fillRule="evenodd" clipRule="evenodd" d="M19.5539 14.592C19.5539 14.592 19.5055 14.5532 19.3619 14.6308C19.2422 14.6948 19.0675 14.864 18.9316 14.9837C18.8441 15.0549 18.7891 15.0871 18.7396 15.1422C18.5389 15.3817 18.3705 15.7734 18.4678 15.9676C18.5651 16.1617 18.8853 16.385 19.7009 16.2329L19.5515 14.5922L19.5539 14.592Z" fill="#E6D89C"/>
<path fillRule="evenodd" clipRule="evenodd" d="M19.2883 14.9936C19.2883 14.9936 19.1588 15.1943 19.1588 15.5147C19.1588 15.8416 19.3434 16.3625 20.023 16.4013C20.544 16.4338 20.8934 15.6506 21.2721 15.3464C21.5601 15.1135 21.7348 15.1068 21.7348 15.1068C21.7348 15.1068 21.4404 14.7868 20.6541 14.3723C19.8773 13.9548 19.0067 13.8998 18.5342 14.5407C18.7575 14.5244 19.4792 14.3399 19.4792 14.3399L19.8321 14.4532L19.2883 14.9938V14.9936Z" fill="#252211"/>
<path fillRule="evenodd" clipRule="evenodd" d="M20.3036 15.4174C20.281 15.369 20.2647 15.3042 20.3586 15.2882C20.4525 15.2722 20.4945 15.2815 20.5269 15.3522C20.5594 15.4228 20.5909 15.4817 20.5429 15.5109C20.4945 15.5367 20.3682 15.5109 20.3034 15.417L20.3036 15.4174ZM20.1516 14.9611C20.1516 14.9611 20.1192 14.9837 20.1354 14.9385C20.1418 14.8836 20.184 14.7864 20.2875 14.8092C20.391 14.832 20.3686 14.9451 20.3515 14.9775C20.3344 15.0099 20.248 15.0648 20.1832 15.0415C20.1665 15.0373 20.1529 15.0253 20.1465 15.0093C20.1401 14.9933 20.1417 14.9753 20.1508 14.9607L20.1516 14.9611Z" fill="#6F674D"/>
<path fillRule="evenodd" clipRule="evenodd" d="M11.3916 15.168C11.3916 15.168 11.6476 15.36 11.945 15.3525C12.2394 15.3459 12.6181 15.0419 12.7928 14.8476C12.8962 14.7343 12.9848 14.6146 13.0808 14.5208C13.1618 14.4399 13.2167 14.4011 13.2555 14.346C13.3105 14.282 13.3688 14.1617 13.398 14.1227C13.3267 14.1777 13.2233 14.275 13.1164 14.3396C13.0129 14.4036 12.7896 14.524 12.6989 14.5564C12.6117 14.5888 11.7054 15.0684 11.7054 15.0684L11.3916 15.168Z" fill="#AC924C"/>
<path fillRule="evenodd" clipRule="evenodd" d="M11.7832 12.7768C11.7832 12.7768 11.9255 12.6797 12.2007 12.618C12.4661 12.554 13.0001 12.5048 13.0001 12.5048L13.4402 12.6968L13.6149 13.3602L13.2949 14.0497L12.8872 14.3057L12.4243 13.5614L11.7843 12.778L11.7832 12.7768Z" fill="#9F8E57"/>
<path fillRule="evenodd" clipRule="evenodd" d="M11.207 13.3689L11.0547 13.4826C11.0547 13.4826 11.0937 13.4113 11.1259 13.1946C11.1582 12.9778 11.3267 12.4503 11.5727 12.1461C11.8186 11.8418 11.8122 11.8581 11.8122 11.8581C11.7664 11.8497 11.7193 11.8614 11.6827 11.8903C11.7152 11.8186 11.9223 11.5626 12.1295 11.4346C12.3366 11.3066 12.4175 11.2663 12.6342 11.3706C12.851 11.4749 12.906 11.5291 13.0647 11.5227C13.2234 11.5163 13.3591 11.348 13.3591 11.348C13.3591 11.348 13.3915 11.4514 13.2719 11.691C13.1522 11.9306 12.6796 12.4191 12.6796 12.4191L11.6958 13.0922L11.207 13.3695V13.3689Z" fill="#EAC970"/>
<path fillRule="evenodd" clipRule="evenodd" d="M11.9354 12.6959C11.9354 12.6959 12.6475 12.7929 12.8643 12.5924C12.8707 12.615 12.8967 12.615 12.8967 12.6312C12.895 12.6434 12.8893 12.6547 12.8805 12.6634C12.9041 12.6597 12.9279 12.6575 12.9517 12.657C12.9802 12.6655 13.0096 12.6709 13.0392 12.6732C13.0631 12.6727 13.0869 12.6705 13.1105 12.6666C13.1059 12.6991 13.0884 12.7284 13.0618 12.7477C13.0943 12.7477 13.1258 12.7541 13.1258 12.7799C13.1258 12.8057 13.1322 12.8836 13.0934 12.8998C13.0612 12.9087 13.027 12.9064 12.9963 12.8932C12.9989 12.9545 13.0155 13.0143 13.045 13.0681C13.109 13.1878 13.2455 13.3241 13.429 13.2849C13.429 13.2849 13.5258 13.5178 13.1181 14.0356C13.0633 14.1068 13.0049 14.2039 12.9338 14.2848C12.9058 14.3459 12.8843 14.41 12.8698 14.4757C12.8698 14.4757 13.5593 14.2103 13.7567 13.6051C13.9574 12.9967 13.9962 12.398 13.9574 11.8383C13.9508 11.6795 13.925 11.5665 13.8861 11.4854C13.7891 11.2847 13.5171 11.3171 13.4072 11.4304C13.2485 11.5891 12.9831 11.9837 12.6143 12.2555C12.2388 12.5273 12.2228 12.5755 11.9346 12.6959H11.9354Z" fill="#D7BC6B"/>
<path fillRule="evenodd" clipRule="evenodd" d="M11.0807 13.5697C11.0807 13.5697 10.9449 13.6506 10.8736 13.9537C10.8023 14.2643 10.9376 14.643 11.0159 14.7627C11.0942 14.8823 11.2719 15.2094 11.6405 15.2256C11.7318 15.2251 11.822 15.2064 11.9059 15.1706C12.0346 15.1116 12.1553 15.0365 12.2652 14.9472C12.4239 14.8275 12.5532 14.7241 12.537 14.7142C12.4981 14.698 11.5597 13.9213 11.5597 13.9213L11.2068 13.5275L11.0805 13.5701L11.0807 13.5697Z" fill="#585136"/>
<path fillRule="evenodd" clipRule="evenodd" d="M11.9677 14.8576C11.9677 14.8576 12.1586 14.8416 12.2719 14.7703C12.3851 14.6991 11.6084 13.929 11.6084 13.929L11.6634 14.761L11.9677 14.8576Z" fill="#453A25"/>
<path fillRule="evenodd" clipRule="evenodd" d="M11.1423 13.5112C11.1423 13.5112 11.0452 13.6957 11.0452 13.7444C11.029 13.9029 11.0776 14.4012 11.1164 14.5597C11.1553 14.728 11.3656 14.9836 11.6376 14.9836C11.8057 14.9836 12.0389 14.8802 12.0389 14.8543C12.0389 14.8219 11.7993 14.7903 11.7347 14.6698C11.6959 14.6058 11.6796 14.4467 11.6707 14.2858C11.6643 14.1823 11.6643 14.0691 11.7031 14.0298C11.7906 13.9327 11.8066 13.6543 11.8066 13.6543L12.1172 13.0773H11.7087L11.2199 13.3815L11.1423 13.5112Z" fill="#84754B"/>
<path fillRule="evenodd" clipRule="evenodd" d="M11.0225 13.6894C11.0225 13.6894 11.3425 13.2655 11.6309 13.1683C11.9193 13.071 12.0484 13.1294 12.0484 13.1294L11.8801 13.5599L11.6405 13.8253L11.6567 13.9612C11.6567 13.9612 11.6177 14.3205 11.8572 14.5697C12.0968 14.8188 12.2747 14.8092 12.3784 14.8092C12.4821 14.8092 12.7797 14.7218 12.9318 14.3625C13.0677 14.0261 13.181 13.5945 12.9092 13.1619C12.6436 12.7314 12.1745 12.7147 12.0838 12.7147C11.9931 12.7147 11.2812 12.7503 11.0225 13.6888V13.6894Z" fill="#252211"/>
<path fillRule="evenodd" clipRule="evenodd" d="M19.2394 15.1293C19.1197 15.0743 19.233 14.7379 19.3527 14.6342C19.4724 14.5305 19.6245 14.4111 19.8901 14.3946C19.9869 14.3882 20.0808 14.4497 20.0648 14.5145C20.0422 14.6342 19.8739 14.8025 19.7218 14.9222C19.5114 15.0873 19.3753 15.1908 19.2394 15.1293Z" fill="#F7F7E7"/>
<path fillRule="evenodd" clipRule="evenodd" d="M12.7667 13.2945C12.8542 13.2881 12.9675 13.3585 12.9901 13.4532C13.0127 13.5567 12.935 13.7638 12.7667 13.7638C12.6308 13.7638 12.5596 13.5955 12.5596 13.5471C12.5611 13.5072 12.5722 13.4684 12.592 13.4338C12.5984 13.424 12.6146 13.3107 12.7667 13.2945Z" fill="#F8F6DE"/>
<path fillRule="evenodd" clipRule="evenodd" d="M11.5048 13.369C11.5048 13.369 11.2815 13.4725 11.178 13.689C11.1041 13.8489 11.0817 14.0278 11.114 14.201C11.1302 14.2819 11.2111 14.4824 11.2661 14.5537C11.3211 14.6249 11.3956 14.6736 11.4506 14.6669C11.5057 14.6603 11.6187 14.5148 11.6187 14.4276C11.6187 14.3403 11.6254 13.9713 11.732 13.7705C11.8259 13.57 11.5055 13.3692 11.5055 13.3692L11.5048 13.369Z" fill="#D4C38B"/>
<path fillRule="evenodd" clipRule="evenodd" d="M11.5372 13.3527C11.4984 13.3753 11.4338 13.4078 11.4498 13.4498C11.466 13.4886 11.6019 13.5138 11.6505 13.6085C11.7055 13.7056 11.7055 13.8091 11.6893 13.8577C11.7316 13.8376 11.77 13.8102 11.8026 13.7766C11.8739 13.6958 11.9611 13.5859 12.0356 13.5859C12.0842 13.5859 12.1326 13.6085 12.1781 13.6085C12.2493 13.6085 12.3204 13.5859 12.3302 13.5115C12.3462 13.4144 12.1943 13.3269 12.1068 13.3431C12.123 13.2791 12.1457 13.1846 12.0744 13.1198C12.0031 13.0549 11.78 13.1684 11.7314 13.2008C11.6827 13.2333 11.5372 13.3529 11.5372 13.3529V13.3527Z" fill="#E2D59D"/>
<path fillRule="evenodd" clipRule="evenodd" d="M16.68 20.1521L17.1589 20.0106L17.2948 20.1077C17.2948 20.1077 17.3916 20.3148 17.544 20.3406C17.4953 20.4441 17.369 20.5326 17.3756 20.606C17.3822 20.6794 17.4469 20.7355 17.4469 20.7355C17.4469 20.7355 17.0164 21.4474 17.8644 22.1649C17.6636 22.2457 17.4081 22.3569 17.2722 22.4209C17.369 22.4435 17.5762 22.4849 17.6636 22.5634C17.7511 22.6419 17.7511 22.6668 17.832 22.7155C17.9128 22.7641 17.9612 22.8288 17.9452 22.8578C17.8902 22.8253 17.7057 22.7285 17.6734 22.8189C17.6412 22.9094 16.8741 22.874 16.8741 22.874L15.5796 23.1232C15.5796 23.1232 15.628 22.9937 15.4921 22.874C15.3336 22.7317 15.1395 22.8804 14.9323 22.7219C14.6605 22.5147 14.6507 22.2752 14.5635 22.1847C14.6507 22.1297 14.8289 22.0488 15.2528 21.9927C15.2365 21.9603 15.1815 21.8632 15.2139 21.776C15.2528 21.6627 15.4145 21.5914 15.366 21.456C15.4373 21.4397 15.4695 21.4397 15.6476 21.2164C15.816 20.993 15.9194 20.9446 16.0489 20.9284C16.1784 20.9122 16.2561 20.9284 16.4956 20.705C16.6637 20.5465 16.6089 20.4106 16.6089 20.4106C16.6089 20.4106 16.7188 20.375 16.6802 20.1516L16.68 20.1521Z" fill="#CBAC5A"/>
<path fillRule="evenodd" clipRule="evenodd" d="M15.2654 20.2241C15.2718 20.1916 15.2978 20.1754 15.4725 20.1916C15.6473 20.2079 16.754 20.0882 17.0551 20.072C17.3593 20.0494 18.4304 20.0654 18.9516 20.1754C19.4728 20.2855 20.0001 20.415 20.2557 20.4796C20.5117 20.5509 20.5923 20.5765 20.5825 20.6089C20.5761 20.6414 20.5185 20.6729 20.4855 20.664C20.4532 20.6576 19.6052 20.3986 19.3433 20.344C19.0813 20.2894 18.1748 20.1432 17.6793 20.152C17.2165 20.1586 17.032 20.1456 16.6405 20.1908C16.2489 20.2394 15.6016 20.3041 15.4075 20.2783C15.2155 20.2556 15.2552 20.2556 15.265 20.2232L15.2654 20.2241Z" fill="#D6BC6F"/>
<path fillRule="evenodd" clipRule="evenodd" d="M17.8709 22.7605C17.8709 22.7605 18.5344 23.1198 18.774 23.5599C18.9487 23.8867 18.6705 24.0486 18.6705 24.0486C18.6705 24.0486 19.046 24.0486 18.9973 24.2558C18.9747 24.385 18.3501 24.7345 17.9326 24.919C17.5087 25.1036 17.5249 25.094 17.3178 25.1262C17.117 25.1586 16.5668 25.0622 16.4536 25.2232C16.3403 25.3843 16.3896 25.5503 16.4211 25.5761C16.4536 25.5987 16.7157 25.6311 16.7157 25.6311C16.7157 25.6311 16.6607 25.7832 16.1171 25.7994C15.5736 25.8157 15.4375 25.8543 15.405 25.9127C15.3726 25.9676 15.5085 25.9353 15.7579 25.9767C16.0071 26.0156 16.3565 26.0407 16.3565 26.0407C16.3565 26.0407 16.2432 26.1378 15.9488 26.2154C15.6122 26.3027 15.0846 26.3838 14.9261 26.4808C15.0069 26.5359 15.1268 26.6167 15.1821 26.6231C15.0462 26.6556 14.8551 26.7268 14.8228 26.7526C14.8713 26.785 14.9361 26.8239 14.9361 26.8239C14.9361 26.8239 14.6641 27.1507 14.5056 27.2318C14.3471 27.3128 13.4345 27.7365 13.1204 27.6557C12.3373 27.4485 12.2402 26.5909 12.0493 26.5263C11.7613 26.4292 11.6254 26.6231 11.3696 26.4872C11.4829 26.4064 11.5445 26.358 11.6642 26.3029C11.5347 26.2389 10.8649 25.8142 10.8649 25.8142C10.7948 25.6615 10.7171 25.5125 10.6319 25.3677C10.5024 25.1443 10.3119 24.8465 10.169 24.5843C9.85836 24.0083 9.84215 23.7429 9.56055 23.4161C9.60919 23.3521 9.77729 23.361 9.77729 23.361L12.1368 24.1378L16.3204 24.259L17.4084 22.7057L17.8712 22.7607L17.8709 22.7605Z" fill="#DFC677"/>
<path fillRule="evenodd" clipRule="evenodd" d="M11.6729 25.1295C11.6981 25.1576 11.7275 25.1816 11.7601 25.2007C11.8412 25.2558 11.9609 25.3206 12.0417 25.4175C12.0741 25.369 12.155 25.2816 12.2977 25.4175C12.4404 25.5534 12.6177 25.4565 12.728 25.4887C12.8413 25.5278 12.8477 25.5438 12.8477 25.5438C12.8477 25.5438 12.9117 25.4887 13.0548 25.4305C13.1423 25.398 13.2458 25.3754 13.359 25.3432C13.4625 25.3206 13.5758 25.2882 13.6537 25.2882C13.7249 25.3366 13.9805 25.6082 15.0064 25.2073C15.9741 24.8319 16.1972 24.7898 16.3591 24.8479C16.3754 24.809 16.3916 24.7346 16.6407 24.7444C16.6407 24.6409 16.4336 24.2881 16.4336 24.2881L15.2912 23.8966H14.6663L12.7926 24.2396L11.7543 24.8321L11.6735 25.1307L11.6729 25.1295Z" fill="#C4A859"/>
<path fillRule="evenodd" clipRule="evenodd" d="M11.0488 24.4726C11.0488 24.4726 11.0714 24.6473 11.3304 24.8319C11.5864 25.0162 11.6669 25.1263 11.6669 25.1263C11.6669 25.1263 11.7155 25.0623 11.7543 24.997C11.7931 24.9257 11.8256 24.8449 11.8902 24.8223C12.0197 24.7672 12.3141 24.8707 12.379 24.8545C12.434 24.8385 12.4178 24.7252 12.476 24.7252C12.6119 24.7186 12.6992 24.8125 12.7478 24.8125C12.7965 24.8125 12.9159 24.8061 12.9321 24.7802C12.9483 24.7544 12.9547 24.4856 13.1393 24.3561C13.34 24.2138 13.586 24.2753 13.6513 24.3077C13.6513 24.3561 13.6577 24.476 13.7872 24.4824C13.9167 24.4888 13.9295 24.4662 14.0432 24.505C14.1569 24.5439 14.2923 24.4986 14.3538 24.6894C14.4088 24.6734 14.5383 24.6571 14.5059 24.4726C14.5699 24.4242 14.6258 24.3918 14.7619 24.2008C14.7943 24.1524 14.8491 24.0974 14.8914 24.0261C15.0047 24.0261 15.1406 24.0035 15.3217 24.162C15.2666 24.2008 15.2342 24.226 15.2182 24.2655C15.2656 24.3124 15.3088 24.3633 15.3475 24.4176C15.3961 24.4816 15.4286 24.5601 15.49 24.5763C15.6259 24.6151 15.8493 24.5601 16.0984 24.5763C16.338 24.5925 16.5385 24.6798 16.626 24.7348C16.6584 24.7188 16.6584 24.7122 16.7393 24.7284C16.8201 24.7446 16.8816 24.751 16.7943 24.6475C16.8427 24.6702 16.8978 24.7188 16.9464 24.6702C16.9951 24.6215 17.0337 24.5505 17.1696 24.5343C17.3055 24.5181 17.3541 24.5407 17.4091 24.3984C17.4804 24.2237 17.2344 24.2237 17.2344 24.2237C17.2344 24.2237 17.3477 24.12 17.474 23.9841C17.6261 23.8418 17.8008 23.6573 17.8429 23.4307C17.9141 23.0132 17.5064 22.9584 17.5064 22.9584L15.529 23.5668L13.1115 23.4469L11.0501 24.4728L11.0488 24.4726Z" fill="#927D49"/>
<path fillRule="evenodd" clipRule="evenodd" d="M9.2721 18.7605C9.2721 18.7605 9.2081 18.8414 9.16863 19.0323C9.12916 19.2233 9.14602 19.2007 9.11359 19.3365C9.08116 19.4724 8.68287 20.8252 8.8322 21.2815C8.98154 21.7378 9.2401 21.9061 9.4018 22.275C9.43423 22.3559 9.4658 22.4045 9.48266 22.4757C9.5377 22.7151 9.48927 22.8996 9.55391 23.1392C9.57652 23.2201 9.63498 23.3139 9.72223 23.411C9.91423 23.6115 10.2272 23.8025 10.3622 23.9384C10.553 24.1391 10.825 24.547 11.1712 24.5856C11.3557 24.6082 11.6179 24.5306 11.8347 24.4013C12.0267 24.2814 12.1453 24.1133 12.3467 24.0173C12.489 23.946 12.6411 23.9202 12.777 23.8878C13.0586 23.8328 13.3143 23.8238 13.4664 23.8554C13.6994 23.904 14.2496 24.0723 14.5544 24.0723C14.7927 24.0685 15.0295 24.0359 15.2599 23.9753C15.7227 23.8394 16.2824 23.6062 16.6515 23.5027C16.8683 23.4387 17.043 23.4219 17.2211 23.3831C17.5253 23.3118 17.7809 23.2147 17.9266 23.0302C17.8295 22.9169 17.7099 22.7422 17.0624 22.7486C16.3279 22.7648 15.4799 23.1725 15.0624 23.2373C14.6449 23.3022 14.4638 23.357 13.9976 23.1887C13.5407 23.0187 13.5255 22.9063 13.5255 22.9063C13.5255 22.9063 13.0458 22.5707 12.845 21.7152C12.6443 20.8597 12.845 20.2364 13.3662 19.644C13.5021 19.4919 13.4696 19.356 13.4696 19.356C13.4696 19.356 13.8127 18.8932 13.7188 18.46C13.6154 18.0295 12.9519 18.1169 12.9519 18.1169L9.27231 18.7605H9.2721Z" fill="#6E6342"/>
<path fillRule="evenodd" clipRule="evenodd" d="M9.8254 20.2008C9.79687 20.2545 9.78345 20.3148 9.78658 20.3755C9.79298 20.4628 9.819 20.5761 10.081 20.8318C10.3043 21.055 10.2557 21.3042 10.2557 21.3042C10.2557 21.3042 10.3681 21.3268 10.6732 21.1841C10.9128 21.0708 10.9932 21.2715 10.9932 21.2715C11.0629 21.235 11.1385 21.2108 11.2166 21.2003C11.2872 21.1938 11.3557 21.1719 11.4171 21.1363C11.4171 21.1363 11.6987 21.4243 11.9447 21.5602C12.168 21.6801 12.2975 21.7609 12.4076 21.6801C12.5111 21.6088 12.5111 21.4631 12.5044 21.3985C12.4788 21.3388 12.4463 21.2823 12.4076 21.2301C12.3363 21.1267 12.2231 21.0068 12.2156 20.9101C12.1994 20.687 12.3839 20.4214 12.3449 20.3568C12.3058 20.2921 12.1606 20.2759 11.8013 20.4054C11.4292 20.5283 9.82391 20.2014 9.82391 20.2014L9.8254 20.2008Z" fill="#39331F"/>
<path fillRule="evenodd" clipRule="evenodd" d="M10.6735 21.6473C10.6735 21.6473 10.4891 21.4726 10.5538 20.6246C10.632 20.6235 10.7102 20.6311 10.7867 20.6472C10.7867 20.6472 10.8872 21.3043 10.6735 21.6473Z" fill="#292311"/>
<path fillRule="evenodd" clipRule="evenodd" d="M9.35962 18.1132C9.38534 18.0942 9.40919 18.0728 9.43087 18.0492C9.36687 18.1689 9.0714 18.6479 9.31098 19.402C9.55055 20.1527 10.1524 20.7125 10.8935 20.7385C11.6346 20.7646 12.0241 20.4019 12.4696 19.8583C12.6443 19.6416 12.8451 19.3696 13.023 19.1852C13.2884 18.897 13.4955 18.8162 13.4955 18.538C13.4955 17.9684 12.9129 17.7126 12.0553 17.457C11.1977 17.2015 10.4241 17.233 10.0229 17.408C9.6314 17.5987 9.46308 17.7994 9.3594 18.1135L9.35962 18.1132Z" fill="#252211"/>
<path fillRule="evenodd" clipRule="evenodd" d="M12.1129 21.9029L12.1769 21.8705C12.1769 21.8705 12.1929 21.6145 12.2966 21.6213C12.4001 21.6376 12.4487 21.7737 12.4389 21.8221C12.4325 21.8705 12.4067 21.9516 12.303 21.9418C12.1671 21.945 12.1123 21.9029 12.1123 21.9029H12.1129Z" fill="#3F3824"/>
<path fillRule="evenodd" clipRule="evenodd" d="M11.8252 20.8156C11.8252 20.8156 11.8892 20.7929 11.9675 20.8706C12.0315 20.8706 12.3105 20.8382 12.398 20.8932C12.4855 20.9483 12.5113 20.9967 12.5113 20.9967C12.5113 20.9967 12.1844 21.0679 12.0063 20.9967C11.8252 20.9352 11.8252 20.8156 11.8252 20.8156H11.8252Z" fill="#2D2815"/>
<path fillRule="evenodd" clipRule="evenodd" d="M13.2659 20.864C13.2659 20.8478 13.0912 20.7281 12.9067 20.6891C12.8743 20.6827 12.8677 20.7053 12.8427 20.7053C12.8265 20.6989 12.8201 20.6503 12.8201 20.6503L12.7151 20.7055C12.7151 20.7055 12.6989 20.7281 12.7539 20.7695C12.8024 20.8083 12.8834 20.8408 12.9061 20.9054C12.9287 20.9701 12.9287 20.9927 12.9385 21.0025C12.9449 21.0089 13.0582 21.0025 13.1132 20.9701C13.1682 20.9376 13.2719 20.8847 13.2653 20.8634L13.2659 20.864Z" fill="#82764F"/>
<path fillRule="evenodd" clipRule="evenodd" d="M11.6309 21.5211C11.6309 21.5211 11.6631 21.2979 11.88 21.2881C12.1032 21.2719 12.1454 21.4886 12.1454 21.4886L12.0159 21.6181C12.0159 21.6149 11.9189 21.479 11.6319 21.5211H11.6309Z" fill="#2D2816"/>
<path fillRule="evenodd" clipRule="evenodd" d="M13.0386 20.5598C13.0386 20.5598 12.9187 20.6893 12.6535 20.7281C12.6309 20.6957 12.5823 20.6311 12.6535 20.5276C12.7248 20.4241 12.8056 20.3917 12.8865 20.4239C12.9593 20.4357 13.0187 20.4888 13.0386 20.5598Z" fill="#574F35"/>
<path fillRule="evenodd" clipRule="evenodd" d="M13.5275 20.7186C13.5341 20.6861 13.5115 20.6797 13.5275 20.6635C13.5435 20.6473 13.6312 20.6151 13.6474 20.6311C13.6538 20.6377 13.6474 20.6635 13.6474 20.6951C13.6474 20.7267 13.6474 20.7591 13.6312 20.7823C13.6085 20.8148 13.5439 20.831 13.5115 20.8214C13.4791 20.8118 13.4727 20.7663 13.4727 20.7574C13.4887 20.751 13.5275 20.7348 13.5275 20.7186ZM14.0801 20.3692C14.0801 20.3529 14.1351 20.3205 14.1675 20.3205C14.216 20.3205 14.216 20.3593 14.2226 20.3692C14.2386 20.3756 14.2386 20.3625 14.2548 20.3918C14.271 20.421 14.2938 20.4726 14.2774 20.505C14.261 20.5375 14.1966 20.5599 14.1806 20.5535C14.1579 20.5373 14.0867 20.3918 14.0801 20.3692Z" fill="#82764F"/>
<path fillRule="evenodd" clipRule="evenodd" d="M12.9678 20.7929C12.9678 20.7929 13.039 20.8089 13.1361 20.89C13.1037 20.9126 13.055 20.9384 13.055 20.9384C13.055 20.9384 13.0486 20.864 12.9678 20.7927V20.7929Z" fill="#6E6342"/>
<path fillRule="evenodd" clipRule="evenodd" d="M12.8092 20.0809C12.793 20.0649 12.8576 20.0261 12.8965 20.0325C12.9353 20.0389 12.9515 20.0649 12.9935 20.0713C13.0355 20.0777 13.0422 20.0551 13.0575 20.0389C13.0729 20.0227 13.1288 20.0325 13.1384 20.0389C13.1444 20.046 13.1498 20.0536 13.1546 20.0615C13.156 20.0366 13.1676 20.0134 13.1868 19.9975C13.2119 19.979 13.2442 19.973 13.2743 19.9813C13.2807 20.0039 13.3131 20.0848 13.3067 20.101C13.3003 20.1172 13.2032 20.14 13.1868 20.1236C13.203 20.1626 13.2743 20.2435 13.2839 20.2595C13.2935 20.2755 13.2126 20.3145 13.1804 20.3081C13.1352 20.3049 12.8568 20.143 12.8083 20.0816L12.8092 20.0809ZM13.233 19.5438C13.227 19.5275 13.2156 19.5137 13.2006 19.5049C13.178 19.4985 13.1035 19.5049 13.1035 19.5438C13.1035 19.5826 13.1675 19.7998 13.2394 19.9128C13.3205 20.0261 13.3753 20.1198 13.4303 20.1458C13.4662 20.1621 13.5086 20.148 13.5274 20.1134C13.5338 20.0971 13.55 19.9775 13.5436 19.6959C13.5372 19.4143 13.5274 19.1425 13.5112 19.1263C13.495 19.1101 13.4303 19.1103 13.4077 19.1425C13.3851 19.1747 13.2394 19.4953 13.2328 19.5438H13.233Z" fill="#585136"/>
<path fillRule="evenodd" clipRule="evenodd" d="M12.9455 21.2006C12.9455 21.2006 12.8322 21.1294 12.7221 21.178C12.6187 21.2266 12.6251 21.4176 12.6251 21.4176C12.6723 21.4361 12.7257 21.43 12.7676 21.4014C12.8388 21.3529 12.9293 21.2721 12.9455 21.2008V21.2006Z" fill="#574F35"/>
<path fillRule="evenodd" clipRule="evenodd" d="M13.1587 21.4564C13.1523 21.3924 13.0947 21.3924 13.0947 21.3593C13.1029 21.3268 13.1322 21.3041 13.1658 21.3043C13.1982 21.3043 13.2298 21.3431 13.2694 21.3683C13.3083 21.3909 13.3665 21.4323 13.3729 21.4816C13.3793 21.5308 13.3089 21.6659 13.2306 21.6659C13.1523 21.6659 13.1756 21.5202 13.1594 21.4555L13.1587 21.4564ZM13.7835 21.369C13.7835 21.369 13.654 21.4078 13.6636 21.369C13.6732 21.3301 13.7026 21.3205 13.7447 21.3205C13.766 21.2982 13.7947 21.2843 13.8255 21.2815C13.8431 21.2806 13.8604 21.2864 13.8739 21.2977C13.8739 21.2977 13.9614 21.2589 13.9872 21.2815C14.013 21.3041 13.9938 21.3041 14.0098 21.3301C14.0302 21.359 14.0436 21.3922 14.0489 21.4272C14.0489 21.453 13.9518 21.508 13.8739 21.4984C13.7835 21.479 13.7995 21.3852 13.7835 21.369ZM14.5372 21.2232C14.5372 21.2232 14.576 21.2458 14.5438 21.2719C14.5212 21.2945 14.4079 21.3359 14.3106 21.3431C14.2136 21.3431 14.1263 21.3591 14.1263 21.3269C14.1263 21.2947 14.2072 21.2298 14.2556 21.2136C14.2753 21.189 14.3051 21.1747 14.3366 21.1748C14.3755 21.1748 14.5274 21.1586 14.5696 21.1522C14.6084 21.1456 14.6409 21.1682 14.618 21.2006C14.6084 21.2232 14.5372 21.2232 14.5372 21.2232ZM14.7605 20.224C14.7605 20.224 14.7119 20.3274 14.657 20.3274C14.602 20.321 14.602 20.3048 14.602 20.2886C14.602 20.266 14.657 20.2077 14.6504 20.1915C14.6344 20.1915 14.5954 20.1915 14.602 20.1527C14.602 20.1203 14.657 20.0815 14.7055 20.0887C14.742 20.0586 14.7876 20.0416 14.8349 20.0403C14.89 20.0403 14.9384 20.0563 14.9384 20.0887C14.9384 20.1211 14.8744 20.1922 14.8509 20.2086C14.8251 20.2344 14.7927 20.2513 14.7605 20.2246V20.224ZM14.0227 22.1365C14.0227 22.1365 13.9587 22.1431 13.9587 22.1754C13.9587 22.1916 13.9747 22.1916 13.9975 22.182C14.0106 22.1812 14.0237 22.179 14.0363 22.1754C14.0427 22.182 14.0427 22.2142 14.0914 22.2142C14.1313 22.2088 14.1698 22.1956 14.2046 22.1754C14.2435 22.1594 14.2759 22.1429 14.2759 22.1114C14.2597 22.0563 14.2272 22.0303 14.1788 22.0303C14.154 22.0287 14.1293 22.0343 14.1076 22.0465C14.1076 22.0465 14.0914 22.0141 14.0363 22.0465C13.9813 22.0789 13.9877 22.0789 14.0039 22.0951C14.0329 22.121 14.0233 22.1378 14.0233 22.1378L14.0227 22.1365ZM13.6569 22.4731C13.6569 22.4569 13.7378 22.4245 13.7604 22.4343C13.783 22.4407 13.8477 22.5635 13.8477 22.5766C13.8477 22.5928 13.7668 22.6316 13.7344 22.6316C13.702 22.6316 13.6471 22.5766 13.6471 22.5676C13.6471 22.5612 13.686 22.5516 13.686 22.545C13.6956 22.529 13.6569 22.4899 13.6569 22.4737V22.4731ZM13.4009 22.0006C13.4171 21.9942 13.4171 21.978 13.4398 21.9618C13.4541 21.9522 13.4721 21.9499 13.4884 21.9554C13.4999 21.9348 13.5202 21.9204 13.5434 21.9163C13.5823 21.9099 13.6147 21.9163 13.6074 21.9326C13.6074 21.9812 13.6399 22.0134 13.6399 22.0522C13.6399 22.0911 13.6172 22.1397 13.5364 22.1721C13.4555 22.1947 13.3455 22.1947 13.3292 22.1883C13.313 22.1819 13.2968 22.1171 13.313 22.0847C13.3292 22.0522 13.3745 22.0168 13.4005 22.0006H13.4009Z" fill="#82764F"/>
<path fillRule="evenodd" clipRule="evenodd" d="M13.5039 22.0226C13.5039 22.0226 13.4489 22.055 13.4489 22.0712C13.444 22.0869 13.4418 22.1033 13.4425 22.1196C13.4425 22.1292 13.5137 22.1132 13.5233 22.1034C13.5265 22.097 13.5039 22.0394 13.5039 22.0226Z" fill="#6E6342"/>
<path fillRule="evenodd" clipRule="evenodd" d="M13.0227 21.8706C13.0549 21.8772 13.11 21.8706 13.152 21.8868C13.1844 21.903 13.207 21.9354 13.1746 21.9742C13.1422 22.0131 13.1106 22.0713 13.0387 22.0615C12.9579 22.0551 12.8802 22.0131 12.8802 21.9806C12.8775 21.9392 12.8915 21.8984 12.919 21.8674C12.9515 21.8415 12.9675 21.8578 13.0225 21.8706H13.0227Z" fill="#585136"/>
<path fillRule="evenodd" clipRule="evenodd" d="M12.9841 21.903C12.9841 21.903 12.8807 21.9838 12.8547 22.0228C12.8222 22.0617 12.6637 22.2622 12.6153 22.3042C12.6314 22.2759 12.6497 22.2488 12.6701 22.2234C12.6061 22.2643 12.5581 22.326 12.5342 22.3981C12.4954 22.518 12.7512 22.5826 12.9193 22.6313C13.0874 22.6799 13.1525 22.6953 13.1525 22.6953C13.0906 22.6023 13.0374 22.5037 12.9937 22.4009C12.9297 22.2488 12.8967 22.2326 12.9387 22.1613C12.9711 22.09 13.0198 22.0416 13.0198 21.9866C13.0004 21.9354 12.9841 21.903 12.9841 21.903Z" fill="#574F35"/>
<path fillRule="evenodd" clipRule="evenodd" d="M9.29437 22.1587C9.31793 22.163 9.34207 22.163 9.36563 22.1587C9.41405 22.1521 9.91901 21.9667 10.4466 22C10.8415 22.0238 11.233 22.0882 11.6148 22.192C12.2783 22.3667 13.1034 22.7129 13.6374 22.9105C13.7797 22.9653 13.919 23.0626 14.0214 23.1012C14.4293 23.2599 14.4453 23.2599 14.6849 23.3019C14.9665 23.3408 15.2545 23.2469 15.5555 23.1823C15.9243 23.1012 16.5554 23.0624 17.1088 22.9815C17.2877 22.9567 17.4642 22.9167 17.6363 22.8618C17.6363 22.8618 17.1962 23.3019 16.1411 23.4604C15.7146 23.5252 15.2812 23.5307 14.8532 23.4767C14.5166 23.4442 14.2934 23.3956 14.1251 23.3472C13.9342 23.2921 13.5425 23.1464 13.0603 23.0272C12.7237 22.9397 12.3482 22.8751 11.9179 22.7942C10.8564 22.5999 9.7044 22.3767 9.29395 22.16L9.29437 22.1587Z" fill="#252211"/>
<path fillRule="evenodd" clipRule="evenodd" d="M8.1034 20.1587C7.8474 20.3754 7.57582 20.5826 7.31065 20.7831L6.51129 21.3973C6.2395 21.5978 5.97412 21.805 5.70212 22.0057C5.43012 22.2065 5.15854 22.3972 4.87012 22.5817C5.12612 22.365 5.39769 22.1642 5.66948 21.9669C5.94126 21.7696 6.22308 21.5761 6.48526 21.376L7.28462 20.7609C7.55961 20.5604 7.825 20.3533 8.1034 20.1591V20.1587ZM6.68934 22.424C6.68934 22.424 6.97734 22.1845 7.33659 21.848C7.7831 21.4308 8.33009 20.8966 8.50481 20.7997L6.68913 22.4243L6.68934 22.424Z" fill="#CFB66C"/>
<path fillRule="evenodd" clipRule="evenodd" d="M6.68848 22.4239C6.83098 22.2816 6.98309 22.1425 7.1352 22.0064L7.36816 21.8058C7.43941 21.7418 7.52048 21.67 7.59152 21.5987C7.73381 21.4564 7.87312 21.3041 8.01541 21.1586C8.08594 21.0854 8.16051 21.0163 8.23877 20.9514C8.2779 20.9168 8.32135 20.8874 8.36805 20.864C8.40709 20.8414 8.44912 20.8 8.50394 20.7927C8.47173 20.8414 8.4329 20.864 8.40048 20.906C8.36165 20.9384 8.32922 20.9773 8.29701 21.0095C8.22576 21.0807 8.1449 21.1454 8.07365 21.2102C7.92154 21.3397 7.76304 21.4662 7.61093 21.6017C7.45882 21.7372 7.31653 21.8833 7.16421 22.0192C6.9993 22.1585 6.8472 22.2944 6.68848 22.4245V22.4239ZM8.62378 21.1294C8.62378 21.1294 7.56885 22.1619 7.35189 22.33L8.62378 21.1294Z" fill="#CFB66C"/>
<path fillRule="evenodd" clipRule="evenodd" d="M8.62541 21.1294C8.53051 21.2392 8.42876 21.343 8.32077 21.44L8.00077 21.7442C7.8973 21.8477 7.80002 21.9514 7.69016 22.0548C7.57688 22.1519 7.47341 22.2468 7.35352 22.3364L7.66413 22.0322C7.76781 21.9288 7.88109 21.8415 7.99117 21.7378L8.30178 21.4336C8.40845 21.3269 8.51213 21.2233 8.62541 21.1294ZM8.67395 21.6892C8.57671 21.9606 8.46212 22.2255 8.33091 22.4822C8.05912 23.026 7.65144 23.7054 7.47331 24.0519L8.67395 21.6892Z" fill="#CFB66C"/>
<path fillRule="evenodd" clipRule="evenodd" d="M8.67303 21.6893C8.67303 21.809 8.6406 21.9127 8.60177 22.0162C8.56393 22.1197 8.52078 22.2213 8.47249 22.3204C8.42385 22.4174 8.36881 22.5211 8.31377 22.615C8.25873 22.7089 8.19409 22.8057 8.14545 22.903L7.81863 23.479C7.70535 23.671 7.59527 23.8641 7.47559 24.0486C7.55644 23.8414 7.66652 23.6473 7.7702 23.4564C7.88348 23.2644 7.98695 23.0724 8.0902 22.8738C8.14061 22.7748 8.18597 22.6733 8.22609 22.5698C8.27452 22.4661 8.32295 22.369 8.36199 22.2751C8.41041 22.1717 8.44924 22.0744 8.49788 21.9807C8.55271 21.8803 8.59815 21.7832 8.6726 21.6893L8.67303 21.6893Z" fill="#CFB66C"/>
<path fillRule="evenodd" clipRule="evenodd" d="M9.82541 24.343C9.82541 24.343 9.50541 24.7669 9.53741 25.3041C9.62466 25.0227 9.73474 24.5922 9.82541 24.343ZM10.1297 24.768C10.1297 24.768 10.0164 25.92 9.92253 26.4864C10.0552 25.8317 10.081 25.8867 10.1297 24.768ZM12.2492 26.5545C12.2492 26.5545 11.7702 27.9625 11.7604 28.3537C11.8641 27.9514 12.0646 27.1294 12.2492 26.5534V26.5545Z" fill="#DEC270"/>
<path fillRule="evenodd" clipRule="evenodd" d="M13.3691 24.256C13.3691 24.256 14.1459 25.5375 14.7285 26.6312C14.5708 26.0808 14.2082 25.0713 13.3691 24.256Z" fill="#CBAF59"/>
<path fillRule="evenodd" clipRule="evenodd" d="M15.4561 26.1425C15.8825 26.8963 16.2671 27.6731 16.6081 28.4693C16.5434 27.9191 16.3685 26.9774 15.4561 26.1425Z" fill="#E3C677"/>
<path fillRule="evenodd" clipRule="evenodd" d="M21.5926 28.032C21.7218 27.9511 21.9776 27.5108 22.201 27.4009C22.4241 27.2877 22.5925 27.2651 22.7932 27.0417C22.9937 26.8085 23.0492 26.6662 23.4889 26.4819C24.1039 26.2163 23.6809 25.8733 23.6809 25.8733C23.7486 25.8067 23.8211 25.7451 23.8976 25.6889C24.0563 25.5693 24.2407 25.4236 24.2247 25.1678C24.2021 24.7375 24.1212 24.1128 23.7683 23.7504C24.1114 23.6791 24.7682 23.6307 25.1763 23.5272C25.6487 23.4073 25.8656 23.239 25.8656 23.239C25.8656 23.239 25.5938 22.7763 26.0339 22.3104C26.4741 21.8445 26.8333 21.5661 27.0987 21.0449C26.7945 21.0061 26.3307 20.8444 25.1471 21.2941C25.211 21.3241 25.2727 21.3587 25.3317 21.3975C25.3317 21.3975 24.6035 21.5983 24.3382 21.8216C23.8752 22.2131 23.817 22.5335 23.3154 22.7731C22.8139 23.0127 22.3089 22.9478 21.8917 23.142C21.4744 23.3361 21.4127 23.5012 21.2604 23.5725C21.2928 23.6113 21.254 23.6759 21.3154 23.731C21.2766 23.786 21.0501 24.1549 20.8203 24.1549C20.8429 24.2423 21.037 24.307 21.037 24.307C21.037 24.307 20.8947 24.4107 20.5323 24.4365C20.7166 24.6285 20.8915 24.8377 21.3737 25.142C21.3349 25.2228 21.1729 25.3427 21.2378 25.4948C21.309 25.6469 21.4938 25.8541 22.2313 26.0224C21.8558 26.0384 21.4159 26.1259 20.8233 26.045C20.2311 25.9737 20.134 25.9317 19.7683 26.0224C19.8072 26.0612 19.9106 26.0612 20.0013 26.1647C19.9042 26.1711 19.2958 26.0934 19.0887 26.3654C18.8719 26.6468 18.7781 27.1097 18.7943 27.4204C18.681 27.4754 18.5709 27.5725 18.6259 27.7732C18.681 27.974 18.969 28.0386 19.1535 28.1647C19.3378 28.3006 19.3541 28.349 19.529 28.3168C19.7133 28.278 19.9851 28.0936 20.1438 28.0936C20.3025 28.0936 20.4156 28.2133 20.4156 28.2133C20.4156 28.2133 20.8461 28.0062 20.8881 28.045C20.927 28.0838 20.8945 28.333 20.9366 28.3718C20.9792 28.4011 21.4641 28.1131 21.5936 28.032H21.5926Z" fill="#ECD592"/>
<path fillRule="evenodd" clipRule="evenodd" d="M31.0002 15.0809C28.9776 9.85769 23.9775 8.89001 23.9775 8.89001H9.71213L9.76717 14.2103H12.6081V26.0907H9.71191V31.4014H23.5826C26.9256 31.4014 29.6052 28.042 29.6052 28.042C33.8964 21.9516 31 15.0809 31 15.0809H31.0002ZM23.6572 24.4626C23.6572 24.4626 22.5692 26.0323 21.3854 26.0323H19.0174L18.9613 14.2233H22.0002C22.0002 14.2233 23.4082 14.5177 24.3919 17.304C24.3919 17.304 25.696 21.2933 23.6572 24.4626Z" fill="white" fillOpacity="0.8"/>
</svg>
