<svg width="40" height="40" viewBox="0 0 40 40" fill="none" xmlns="http://www.w3.org/2000/svg">
<circle cx="20.1663" cy="19.8333" r="17.8333" fill="white"/>
<path fillRule="evenodd" clipRule="evenodd" d="M-0.000976562 20C-0.000976562 8.95431 8.95329 0 19.9989 0H20.1152C25.4041 0.0153897 30.4702 2.13118 34.1992 5.88191C37.9281 9.63264 40.0143 14.7111 39.9989 20C39.9989 31.0457 31.0446 40 19.9989 40C8.95329 40 -0.000976562 31.0457 -0.000976562 20ZM18.2556 27.6997L20.3379 20.6779L23.5825 19.7578L24.2604 17.4334L21.0643 18.4019L24.4541 6.87648V6.69246C24.4491 6.54345 24.385 6.40256 24.276 6.30082C24.167 6.19909 24.022 6.14486 23.873 6.15009H19.5631C19.2274 6.13974 18.9278 6.35945 18.8367 6.68278L14.8174 20.339L11.6212 21.3075L10.8949 23.5351L14.091 22.5666L11.2338 32.3002H28.2798C28.6166 32.3141 28.9182 32.093 29.0062 31.7675L29.9747 28.4261V28.2421C29.9696 28.0931 29.9055 27.9522 29.7965 27.8505C29.6875 27.7487 29.5426 27.6945 29.3936 27.6997H18.2556Z" fill="#345D9D"/>
</svg>
