<svg width="40" height="40" viewBox="0 0 40 40" fill="none" xmlns="http://www.w3.org/2000/svg">
<circle cx="20" cy="20" r="20" fill="#EDF0F4"/>
<path d="M20.086 6.6665C14.525 6.68884 10.0223 11.1915 10 16.7525C10 17.8662 10.1798 18.9725 10.5319 20.0288C10.7946 20.7478 11.5743 21.135 12.3061 20.9127C13.0135 20.6414 13.389 19.8681 13.1635 19.1448C12.8646 18.3215 12.7316 17.4482 12.7709 16.5738C12.8922 12.5573 16.2461 9.39916 20.2626 9.52042C24.2792 9.64168 27.4373 12.9955 27.316 17.0121C27.2022 20.7723 24.2409 23.8262 20.4849 24.0549C20.4849 24.0549 19.0691 24.141 18.365 24.2272C18.1054 24.2644 17.848 24.3155 17.5938 24.3804C17.5576 24.4176 17.4991 24.4176 17.4619 24.3814L17.4608 24.3804C17.4353 24.3474 17.4353 24.3006 17.4608 24.2676L17.6799 23.072L19.0096 17.0919C19.1691 16.3451 18.6937 15.6101 17.9469 15.4506C17.2002 15.291 16.4652 15.7665 16.3056 16.5132C16.3056 16.5132 13.1432 31.1508 13.1432 31.2838C12.9624 31.9954 13.3922 32.7187 14.1038 32.8996C14.1112 32.9017 14.1197 32.9038 14.1272 32.9049H14.2006C14.9111 33.0889 15.6366 32.6613 15.8195 31.9507C15.8227 31.939 15.8259 31.9273 15.828 31.9146C15.8259 31.8922 15.8259 31.8699 15.828 31.8486C15.8674 31.6763 16.2663 29.7287 16.2663 29.7287C16.5684 28.2586 17.7533 27.1322 19.2361 26.9045C19.5414 26.8577 20.8242 26.7716 20.8242 26.7716C26.364 26.2195 30.4072 21.2807 29.854 15.741C29.3498 10.6884 25.1642 6.7984 20.086 6.6665Z" fill="#1E1E1E"/>
<path d="M20.6981 29.9224C19.7887 29.733 18.8994 30.317 18.7101 31.2254C18.7079 31.2339 18.7069 31.2424 18.7047 31.2509C18.508 32.154 19.0802 33.0465 19.9844 33.2432C19.9854 33.2432 19.9865 33.2432 19.9876 33.2443H20.0344C20.9194 33.4581 21.8097 32.9135 22.0224 32.0296C22.0246 32.0232 22.0256 32.0157 22.0278 32.0093V31.9168C22.1841 31.0041 21.6012 30.1287 20.6981 29.9224Z" fill="#E6007A"/>
</svg>
