<svg width="40" height="40" viewBox="0 0 40 40" fill="none" xmlns="http://www.w3.org/2000/svg">
<path d="M39.3971 24.8381C36.726 35.5525 25.8741 42.0731 15.1584 39.4012C4.44722 36.7301 -2.07335 25.8775 0.598971 15.1639C3.26894 4.44838 14.1209 -2.07268 24.8332 0.598468C35.5481 3.26961 42.0683 14.1234 39.3968 24.8383L39.397 24.8381H39.3971Z" fill="#50AF95"/>
<path fillRule="evenodd" clipRule="evenodd" d="M22.5307 22.2674C22.3893 22.278 21.6586 22.3216 20.0288 22.3216C18.7324 22.3216 17.812 22.2827 17.4891 22.2674C12.4794 22.047 8.74007 21.1749 8.74007 20.1308C8.74007 19.0867 12.4794 18.2158 17.4891 17.9919V21.3989C17.8168 21.4224 18.7548 21.4778 20.0512 21.4778C21.6068 21.4778 22.3857 21.413 22.526 21.4V17.9942C27.5251 18.217 31.2562 19.089 31.2562 20.1308C31.2562 21.1726 27.5263 22.0447 22.526 22.2662L22.5307 22.2674ZM22.5309 17.642V14.5932H29.5075V9.94409H10.5127V14.5932H17.4881V17.6408C11.8184 17.9012 7.55469 19.0243 7.55469 20.3701C7.55469 21.716 11.8184 22.8379 17.4881 23.0995V32.8691H22.5297V23.096C28.1864 22.8355 32.4431 21.7136 32.4431 20.369C32.4431 19.0243 28.1899 17.9024 22.5297 17.6408L22.5309 17.642Z" fill="white"/>
</svg>
